<?xml version="1.0" encoding="UTF-8" standalone="no"?>
<!-- Created with Inkscape (http://www.inkscape.org/) -->

<svg
   version="1.1"
   id="svg1"
   width="600"
   height="600"
   viewBox="0 0 600 600"
   xmlns="http://www.w3.org/2000/svg"
   xmlns:svg="http://www.w3.org/2000/svg">
  <defs
     id="defs1" />
  <g
     id="g1">
    <g
       id="g2"
       transform="translate(-4.6153846e-5,-23.076919)">
      <path
         style="fill:#c359db"
         d="m 315.02398,539.5 c 0.0414,-23.09091 0.434,-37.5 1.02165,-37.5 0.52491,0 0.95437,-0.70156 0.95437,-1.55902 0,-0.90405 -0.47462,-1.26569 -1.12973,-0.8608 -0.67935,0.41986 -0.94954,0.15763 -0.67774,-0.65777 0.29892,-0.89675 3.7792,-1.77383 10.27631,-2.58978 11.03343,-1.38565 28.04469,-5.20103 36.93771,-8.2846 6.69532,-2.32153 6.66746,-2.31587 6.3862,-1.29803 -0.51422,1.86092 1.34387,9.25 2.32606,9.25 0.60234,0 0.845,0.65192 0.53924,1.44872 -0.30576,0.7968 0.0289,2.7093 0.74372,4.25 0.71481,1.5407 1.96403,4.2629 2.77604,6.04933 1.87227,4.11901 1.28296,9.87925 -0.83121,8.12464 -1.20316,-0.99853 -1.31428,-0.52274 -0.73051,3.12796 0.42243,2.64169 0.32135,4.07872 -0.26154,3.71847 -0.52252,-0.32293 -1.60356,-0.17374 -2.4023,0.33155 -1.22057,0.77214 -1.18637,0.92115 0.21442,0.93402 0.91666,0.008 1.82602,0.49339 2.02079,1.0777 0.24867,0.74601 1.2082,0.73768 3.22203,-0.028 1.57734,-0.5997 3.07686,-0.88139 3.33228,-0.62597 0.91049,0.91049 -26.59998,8.6436 -35.74177,10.04689 -2.475,0.37993 -5.34385,0.93111 -6.37523,1.22485 -1.37524,0.39169 -1.66578,0.17224 -1.08967,-0.82305 0.43205,-0.74642 0.40669,-1.01292 -0.0564,-0.59222 -0.46305,0.42071 -0.72324,3.32685 -0.57819,6.4581 0.14505,3.13125 0.33926,12.57472 0.43158,20.98549 l 0.16786,15.29231 -10.77165,-4e-4 L 314.9567,577 Z m 3.94821,-0.24379 c -0.006,-21.37883 0.36078,-34.8672 0.953,-35.06461 1.11933,-0.37311 0.2627,-3.1916 -0.97003,-3.1916 -0.45697,0 -0.8255,0.7875 -0.81894,1.75 0.21515,31.58645 -0.44362,68.25 -1.22632,68.25 -0.79182,0 0.95341,2.82336 1.83092,2.96196 0.13245,0.0209 0.23656,-15.59667 0.23137,-34.70575 z M 331.12756,532.25 c 1.26951,-1.61876 1.22245,-1.63998 -0.62756,-0.28297 -1.1,0.80687 -2.1875,1.59437 -2.41667,1.75 -0.22916,0.15563 0.0532,0.28297 0.62756,0.28297 0.57432,0 1.66182,-0.7875 2.41667,-1.75 z m 10.60161,1.14583 c -0.33229,-0.33229 -1.1948,-0.36781 -1.91667,-0.0789 -0.79773,0.31922 -0.56078,0.55618 0.60417,0.60416 1.05416,0.0434 1.64479,-0.19293 1.3125,-0.52522 z M 352.5,531 c 0.731,-1.18278 -0.24752,-1.18278 -3,0 -1.92824,0.82859 -1.92138,0.86195 0.19098,0.92971 1.20504,0.0387 2.4691,-0.37971 2.80902,-0.92971 z m -14.37244,-1.66372 c 1.24448,-1.5086 1.16266,-1.55194 -0.87756,-0.46482 -2.32696,1.23991 -2.89993,2.12854 -1.37244,2.12854 0.48265,0 1.49515,-0.74867 2.25,-1.66372 z M 348,529 c 0,-0.55 -1.0125,-0.96837 -2.25,-0.92971 -2.1469,0.0671 -2.15836,0.10966 -0.25,0.92971 1.1,0.47269 2.1125,0.89106 2.25,0.92971 C 347.8875,529.96837 348,529.55 348,529 Z m 12,0 c 0,-0.55 -0.47656,-1 -1.05902,-1 -0.58246,0 -0.7809,0.45 -0.44098,1 0.33992,0.55 0.81648,1 1.05902,1 0.24254,0 0.44098,-0.45 0.44098,-1 z m -7.65792,-1.44907 c 0.37092,-0.96661 0.0755,-1.26467 -0.88726,-0.89522 -0.79383,0.30462 -1.19436,0.95671 -0.89006,1.44907 0.76643,1.24011 1.13272,1.12596 1.77732,-0.55385 z m 16.84599,-8.17935 c -0.62306,-1.11334 -1.13189,-1.27149 -1.6087,-0.5 -0.38357,0.62063 -0.19052,1.12842 0.429,1.12842 0.68372,0 0.88465,0.88427 0.51127,2.25 -0.53095,1.94205 -0.46494,2.01049 0.4823,0.5 0.69211,-1.10365 0.76085,-2.35144 0.18613,-3.37842 z M 363.12756,516.25 c 1.26951,-1.61876 1.22245,-1.63998 -0.62756,-0.28297 -1.1,0.80687 -2.1875,1.59437 -2.41667,1.75 -0.22916,0.15563 0.0532,0.28297 0.62756,0.28297 0.57432,0 1.66182,-0.7875 2.41667,-1.75 z M 372,512 c 0,-0.55 -0.19844,-1 -0.44098,-1 -0.24254,0 -0.7191,0.45 -1.05902,1 -0.33992,0.55 -0.14148,1 0.44098,1 0.58246,0 1.05902,-0.45 1.05902,-1 z m -40,-14 c 0,-0.55 -1.09844,-1 -2.44098,-1 -1.34254,0 -2.7191,0.45 -3.05902,1 -0.36058,0.58342 0.65628,1 2.44098,1 1.68246,0 3.05902,-0.45 3.05902,-1 z m -60,38.47822 c -32.08933,-3.91415 -61.3897,-13.60183 -90.5,-29.92233 -8.40065,-4.70977 -21.11212,-13.11927 -21.99854,-14.55352 -0.35001,-0.56634 2.31363,1.0325 5.91921,3.55298 6.41312,4.48309 6.63735,4.55502 10.31746,3.30953 2.06903,-0.70024 4.18937,-1.6313 4.71187,-2.06902 0.5225,-0.43772 1.7649,-0.79586 2.7609,-0.79586 0.99599,0 3.71849,-0.86067 6.05,-1.91261 2.3315,-1.05193 6.0391,-2.46057 8.2391,-3.13032 6.97358,-2.12296 8.4175,-4.32357 3.48427,-5.31022 -1.65865,-0.33173 -5.41457,-1.73798 -8.34649,-3.125 C 189.70586,481.13483 186.56294,480 185.65351,480 184.74408,480 184,479.55 184,479 c 0,-0.55 -0.68527,-1 -1.52282,-1 -1.26249,0 -8.87677,-2.83177 -18.97718,-7.05766 -1.1,-0.46022 -5.6,-2.25934 -10,-3.99804 -4.4,-1.7387 -12.17677,-4.91245 -17.2817,-7.05278 C 131.11336,457.75118 126.30242,456 125.52731,456 c -0.7751,0 -1.71162,-0.4892 -2.08115,-1.08712 -0.36953,-0.59791 -1.51741,-0.86601 -2.55083,-0.59576 -1.31264,0.34326 -2.78038,-0.64678 -4.86973,-3.28479 l -2.99076,-3.77615 4.23258,-0.56079 c 2.32792,-0.30843 12.78258,-1.71526 23.23258,-3.12629 10.45,-1.41103 19.24532,-2.56632 19.54516,-2.56731 0.29983,-9.8e-4 4.12483,3.20493 8.5,7.12425 8.26944,7.40786 8.67972,7.71677 22.70667,17.09624 26.20213,17.5207 59.52397,29.12506 90.74817,31.60313 l 8.5,0.67459 0.27071,20.25 0.2707,20.25 -4.2707,-0.12051 C 284.42182,537.81321 277.775,537.18264 272,536.47822 Z M 289.36163,535.5 C 288.73448,533.86567 287,533.43725 287,534.91667 c 0,0.759 0.70084,1.27571 2.71862,2.00438 0.12023,0.0434 -0.0404,-0.59605 -0.35699,-1.42105 z M 289,530.5 c 0,-1.375 -0.45,-2.5 -1,-2.5 -1.11717,0 -1.3707,3.29596 -0.33333,4.33333 C 288.76901,533.43567 289,533.11806 289,530.5 Z m -0.31067,-8.25 c -0.25153,-0.9625 -0.45733,-0.175 -0.45733,1.75 0,1.925 0.2058,2.7125 0.45733,1.75 0.25152,-0.9625 0.25152,-2.5375 0,-3.5 z m 0.99378,-4.4375 c -0.31922,-0.79773 -0.55618,-0.56078 -0.60416,0.60417 -0.0434,1.05416 0.19293,1.64479 0.52522,1.3125 0.33229,-0.33229 0.36781,-1.1948 0.0789,-1.91667 z M 382,523 c 0.825,-0.53316 1.95,-0.96937 2.5,-0.96937 0.55,0 0.325,0.43621 -0.5,0.96937 -0.825,0.53316 -1.95,0.96937 -2.5,0.96937 -0.55,0 -0.325,-0.43621 0.5,-0.96937 z m 8,-3 c 0.825,-0.53316 1.95,-0.96937 2.5,-0.96937 0.55,0 0.325,0.43621 -0.5,0.96937 -0.825,0.53316 -1.95,0.96937 -2.5,0.96937 -0.55,0 -0.325,-0.43621 0.5,-0.96937 z m 25,-11.42963 c 0,-0.275 0.9,-0.98167 2,-1.57037 1.1,-0.5887 2,-0.84537 2,-0.57037 0,0.275 -0.9,0.98167 -2,1.57037 -1.1,0.5887 -2,0.84537 -2,0.57037 z m 11,-7 c 0,-0.275 0.9,-0.98167 2,-1.57037 1.1,-0.5887 2,-0.84537 2,-0.57037 0,0.275 -0.9,0.98167 -2,1.57037 -1.1,0.5887 -2,0.84537 -2,0.57037 z m 10,-6.96338 c 0,-0.21616 0.69837,-0.661 1.55194,-0.98855 0.88992,-0.34149 1.29132,-0.17385 0.94098,0.39301 C 437.90566,494.96166 436,495.4169 436,494.60699 Z M 441.5,491 c 0.99549,-1.1 2.03498,-2 2.30998,-2 0.275,0 -0.31449,0.9 -1.30998,2 -0.99549,1.1 -2.03498,2 -2.30998,2 -0.275,0 0.31449,-0.9 1.30998,-2 z m -285.62756,-1.75 c -1.24387,-1.58606 -1.2085,-1.62143 0.37756,-0.37756 0.9625,0.75485 1.75,1.54235 1.75,1.75 0,0.82304 -0.82119,0.29331 -2.12756,-1.37244 z m -4,-3 c -1.24387,-1.58606 -1.2085,-1.62143 0.37756,-0.37756 0.9625,0.75485 1.75,1.54235 1.75,1.75 0,0.82304 -0.82119,0.29331 -2.12756,-1.37244 z M 450,484.62244 c 0,-0.20765 0.7875,-0.99515 1.75,-1.75 1.58606,-1.24387 1.62143,-1.2085 0.37756,0.37756 C 450.82119,484.91575 450,485.44548 450,484.62244 Z M 146.40499,481.75 144.5,479.5 l 2.5,1.98934 c 1.375,1.09414 2.6875,2.10664 2.91667,2.25 0.22916,0.14336 -0.0386,0.26066 -0.59502,0.26066 -0.55642,0 -1.86892,-1.0125 -2.91666,-2.25 z M 279,481.46547 c -34.01295,-4.22724 -65.77752,-17.40171 -91.69832,-38.0322 -4.99504,-3.97558 -5.80822,-4.99686 -4.18885,-5.26083 1.10521,-0.18016 2.24776,-1.08016 2.539,-2 0.29124,-0.91984 0.90818,-2.57244 1.37097,-3.67244 0.4628,-1.1 1.51316,-4.7 2.33413,-8 0.82098,-3.3 3.51086,-12.75 5.97752,-21 2.46666,-8.25 5.90978,-20.175 7.65138,-26.5 1.7416,-6.325 3.56422,-12.75291 4.05028,-14.28425 0.61252,-1.92977 0.55371,-2.58028 -0.19163,-2.11964 -0.59144,0.36554 2.7606,-4.45655 7.44899,-10.71575 17.06486,-22.78233 14.80456,-20.51866 20.62036,-20.65113 2.83565,-0.0646 6.4025,-0.73942 7.92634,-1.49961 2.51457,-1.25443 3.08895,-1.16685 6.21522,0.94772 1.89454,1.28143 5.24461,3.51819 7.44461,4.97057 2.2,1.45238 5.77803,4.03826 7.95118,5.74639 2.17315,1.70814 4.72157,3.5557 5.66317,4.1057 1.70011,0.99306 11.34424,7.60605 21.88565,15.00701 l 5.5,3.86146 -0.12797,6.06577 c -0.0827,3.91951 -1.06964,8.49917 -2.78933,12.94309 -1.46375,3.78253 -2.50684,7.03186 -2.31798,7.22072 0.58861,0.58862 11.19756,-3.00413 11.92423,-4.03817 0.42198,-0.60046 1.39074,-0.3725 2.5,0.58828 4.95504,4.29178 17.50293,5.23006 23.31105,1.74311 5.35964,-3.21771 8.09483,-6.01995 10.03355,-10.27949 1.76011,-3.86714 1.85292,-3.91482 17.11808,-8.79435 23.00369,-7.35316 25.83899,-8.16015 26.46628,-7.53285 0.64411,0.6441 -0.60789,3.88074 -13.62203,35.21542 -16.46022,39.63192 -17.39498,42.36805 -16.12785,47.2077 0.60591,2.31423 0.84103,5.01423 0.52249,6 -0.42349,1.3105 -0.32514,1.43814 0.36587,0.47481 0.71077,-0.99086 1.27925,-0.51067 2.29306,1.93688 0.7414,1.7899 1.28654,4.07027 1.21143,5.06749 -0.0751,0.99721 0.28545,1.81312 0.80127,1.81312 0.51582,0 0.93785,1.09844 0.93785,2.44098 0,1.34254 0.3538,2.65965 0.78622,2.9269 0.95666,0.59125 0.85631,4.78346 -0.15361,6.41756 -0.52747,0.85346 0.19006,1.04801 2.56768,0.69622 5.55786,-0.82234 -16.20345,6.32149 -24.20029,7.9445 -20.53661,4.16803 -42.12086,5.26139 -60,3.03931 z M 466.5,469 c 6.58281,-6.6 12.19374,-12 12.46874,-12 0.275,0 -4.88593,5.4 -11.46874,12 -6.58281,6.6 -12.19374,12 -12.46874,12 -0.275,0 4.88593,-5.4 11.46874,-12 z m -79.76667,8.87591 c 0.67834,-0.68342 1.48524,-0.99067 1.79313,-0.68278 0.30789,0.30789 -0.24711,0.86705 -1.23333,1.24258 -1.4252,0.54268 -1.54006,0.42782 -0.5598,-0.5598 z M 130.48295,466.75 119.5,455.5 l 11.25,10.98295 c 6.1875,6.04062 11.25,11.10312 11.25,11.25 0,0.72114 -1.31566,-0.53351 -11.51705,-10.98295 z M 370,468 c 0.825,-0.53316 1.95,-0.96937 2.5,-0.96937 0.55,0 0.325,0.43621 -0.5,0.96937 -0.825,0.53316 -1.95,0.96937 -2.5,0.96937 -0.55,0 -0.325,-0.43621 0.5,-0.96937 z m 8,-3.39301 c 0,-0.21616 0.69837,-0.661 1.55194,-0.98855 0.88992,-0.34149 1.29132,-0.17385 0.94098,0.39301 C 379.90566,464.96166 378,465.4169 378,464.60699 Z m 34,-0.98455 c 0,-0.20765 0.7875,-0.99515 1.75,-1.75 1.58606,-1.24387 1.62143,-1.2085 0.37756,0.37756 C 412.82119,463.91575 412,464.44548 412,463.62244 Z m 7,-4.91795 c 0,-0.25496 2.11653,-2.1979 4.7034,-4.31765 2.58688,-2.11975 4.38063,-3.33183 3.98613,-2.6935 C 426.84892,453.05347 419,459.38638 419,458.70449 Z m -26,-2.13412 c 0,-0.275 0.9,-0.98167 2,-1.57037 1.1,-0.5887 2,-0.84537 2,-0.57037 0,0.275 -0.9,0.98167 -2,1.57037 -1.1,0.5887 -2,0.84537 -2,0.57037 z m 5,-3 c 0,-0.275 0.9,-0.98167 2,-1.57037 1.1,-0.5887 2,-0.84537 2,-0.57037 0,0.275 -0.9,0.98167 -2,1.57037 -1.1,0.5887 -2,0.84537 -2,0.57037 z m 84,-0.94793 c 0,-0.20765 0.7875,-0.99515 1.75,-1.75 1.58606,-1.24387 1.62143,-1.2085 0.37756,0.37756 C 482.82119,452.91575 482,453.44548 482,452.62244 Z M 439,440.5 c 5.20327,-5.225 9.6855,-9.5 9.9605,-9.5 0.275,0 -3.75723,4.275 -8.9605,9.5 -5.20327,5.225 -9.6855,9.5 -9.9605,9.5 -0.275,0 3.75723,-4.275 8.9605,-9.5 z m -32,7.12244 c 0,-0.20765 0.7875,-0.99515 1.75,-1.75 1.58606,-1.24387 1.62143,-1.2085 0.37756,0.37756 C 407.82119,447.91575 407,448.44548 407,447.62244 Z m 4,-3 c 0,-0.20765 0.7875,-0.99515 1.75,-1.75 1.58606,-1.24387 1.62143,-1.2085 0.37756,0.37756 C 411.82119,444.91575 411,445.44548 411,444.62244 Z M 417.5,439 c 0.99549,-1.1 2.03498,-2 2.30998,-2 0.275,0 -0.31449,0.9 -1.30998,2 -0.99549,1.1 -2.03498,2 -2.30998,2 -0.275,0 0.31449,-0.9 1.30998,-2 z m 7.5,-6.37756 c 0,-0.20765 0.7875,-0.99515 1.75,-1.75 1.58606,-1.24387 1.62143,-1.2085 0.37756,0.37756 C 425.82119,432.91575 425,433.44548 425,432.62244 Z M 432,425.5 c 1.29175,-1.375 2.57363,-2.5 2.84863,-2.5 0.275,0 -0.55688,1.125 -1.84863,2.5 -1.29175,1.375 -2.57363,2.5 -2.84863,2.5 -0.275,0 0.55688,-1.125 1.84863,-2.5 z m 24,-3.87756 c 0,-0.20765 0.7875,-0.99515 1.75,-1.75 1.58606,-1.24387 1.62143,-1.2085 0.37756,0.37756 C 456.82119,421.91575 456,422.44548 456,421.62244 Z M 183.95722,413.25 c 1.85763,-2.3375 3.55784,-4.25 3.77824,-4.25 0.70656,0 -3.57895,5.6269 -5.39892,7.08881 -0.96625,0.77616 -0.23694,-0.50131 1.62068,-2.83881 z M 442,413.62244 c 0,-0.20765 0.7875,-0.99515 1.75,-1.75 1.58606,-1.24387 1.62143,-1.2085 0.37756,0.37756 C 442.82119,413.91575 442,414.44548 442,413.62244 Z M 189.07895,393.41667 c 0.048,-1.16495 0.28494,-1.4019 0.60416,-0.60417 0.28887,0.72187 0.25335,1.58438 -0.0789,1.91667 -0.3323,0.33229 -0.56864,-0.25834 -0.52522,-1.3125 z M 187,387.05902 c 0,-0.51754 0.44485,-1.21592 0.98855,-1.55194 0.56686,-0.35034 0.7345,0.0511 0.39301,0.94098 C 187.71677,388.18048 187,388.49745 187,387.05902 Z M 194,377 c 1.1749,-1.65 2.36119,-3 2.63619,-3 0.275,0 -0.46129,1.35 -1.63619,3 -1.1749,1.65 -2.36119,3 -2.63619,3 -0.275,0 0.46129,-1.35 1.63619,-3 z m 6,-8 c 1.1749,-1.65 2.36119,-3 2.63619,-3 0.275,0 -0.46129,1.35 -1.63619,3 -1.1749,1.65 -2.36119,3 -2.63619,3 -0.275,0 0.46129,-1.35 1.63619,-3 z m -39.1875,0.31689 c 0.72187,-0.28887 1.58437,-0.25335 1.91667,0.0789 0.33229,0.33229 -0.25834,0.56864 -1.3125,0.52522 -1.16495,-0.048 -1.4019,-0.28494 -0.60417,-0.60416 z M 346.5,350 c 2.14824,-2.2 4.1309,-4 4.4059,-4 0.275,0 -1.25766,1.8 -3.4059,4 -2.14824,2.2 -4.1309,4 -4.4059,4 -0.275,0 1.25766,-1.8 3.4059,-4 z m -41.06836,-3.75 c -1.07002,-0.9625 -6.89237,-5.08374 -12.93856,-9.15831 -6.0462,-4.07457 -11.14308,-7.78707 -11.32641,-8.25 -0.18334,-0.46293 -0.85834,-0.85368 -1.5,-0.86834 -0.64167,-0.0146 -3.75889,-1.92715 -6.92715,-4.25 -3.16827,-2.32284 -8.23077,-5.98174 -11.25,-8.13088 -5.11886,-3.64369 -5.4899,-4.18385 -5.4951,-8 -0.008,-5.94961 -1.5688,-10.65819 -4.8259,-14.55968 l -2.86613,-3.43316 3.5988,-5.67256 c 1.97935,-3.11991 4.8511,-7.79765 6.38168,-10.39499 2.31597,-3.93012 3.02901,-4.51813 4.25,-3.5048 1.19427,0.99116 1.46713,4.71284 1.46713,20.01114 v 18.79352 l 3.75,2.94181 c 3.34246,2.6221 22.3868,15.75247 32.09377,22.12746 2.01092,1.32067 3.98684,2.89567 4.39092,3.5 0.40408,0.60434 0.80528,-1.15121 0.89157,-3.90121 0.14995,-4.77912 0.32782,-7.39765 0.7027,-10.34461 0.0941,-0.73954 1.72018,0.50959 3.61358,2.77584 l 3.44254,4.12045 -1.63584,4.41371 c -0.89971,2.42755 -2.06838,4.14639 -2.59705,3.81965 -0.52866,-0.32673 -0.64386,-0.0806 -0.25598,0.54702 0.38787,0.62759 0.26298,2.74273 -0.27754,4.70032 -0.93116,3.37237 -0.86818,3.52716 1.19929,2.94793 1.72315,-0.48276 1.86658,-0.39046 0.68204,0.43887 -2.00877,1.4064 -2.30998,1.36227 -4.56836,-0.66918 z m 10.83739,-1.94299 c 0.97297,-0.25354 2.32297,-0.23687 3,0.0371 0.67703,0.27393 -0.11903,0.48137 -1.76903,0.46099 -1.65,-0.0204 -2.20394,-0.2445 -1.23097,-0.49804 z m 5.48097,0.0307 c 0.6875,-0.27741 1.8125,-0.27741 2.5,0 0.6875,0.27741 0.125,0.50439 -1.25,0.50439 -1.375,0 -1.9375,-0.22698 -1.25,-0.50439 z M 329,342.5 c 1.29175,-1.375 2.57363,-2.5 2.84863,-2.5 0.275,0 -0.55688,1.125 -1.84863,2.5 -1.29175,1.375 -2.57363,2.5 -2.84863,2.5 -0.275,0 0.55688,-1.125 1.84863,-2.5 z m 23,1.12244 c 0,-0.20765 0.7875,-0.99515 1.75,-1.75 1.58606,-1.24387 1.62143,-1.2085 0.37756,0.37756 C 352.82119,343.91575 352,344.44548 352,343.62244 Z m -293.238341,-6.3297 c 1.243913,-0.23919 3.043913,-0.23011 4,0.0202 0.956088,0.25029 -0.06166,0.446 -2.261659,0.4349 -2.2,-0.0111 -2.982253,-0.21589 -1.738341,-0.45508 z M 338,332.62244 c 0,-0.20765 0.7875,-0.99515 1.75,-1.75 1.58606,-1.24387 1.62143,-1.2085 0.37756,0.37756 C 338.82119,332.91575 338,333.44548 338,332.62244 Z m 7,-18 c 0,-0.20765 0.7875,-0.99515 1.75,-1.75 1.58606,-1.24387 1.62143,-1.2085 0.37756,0.37756 C 345.82119,314.91575 345,315.44548 345,314.62244 Z m 8,-9 c 0,-0.20765 0.7875,-0.99515 1.75,-1.75 1.58606,-1.24387 1.62143,-1.2085 0.37756,0.37756 C 353.82119,305.91575 353,306.44548 353,305.62244 Z m 9,0 c 0,-0.20765 0.7875,-0.99515 1.75,-1.75 1.58606,-1.24387 1.62143,-1.2085 0.37756,0.37756 C 362.82119,305.91575 362,306.44548 362,305.62244 Z m 202.26903,-43.31543 c 0.97297,-0.25354 2.32297,-0.23687 3,0.0371 0.67703,0.27393 -0.11903,0.48137 -1.76903,0.46099 -1.65,-0.0204 -2.20394,-0.2445 -1.23097,-0.49804 z M 153.75,261.25412 c 5.6375,-0.17825 14.8625,-0.17825 20.5,0 5.6375,0.17825 1.025,0.32409 -10.25,0.32409 -11.275,0 -15.8875,-0.14584 -10.25,-0.32409 z"
         id="path8" />
      <path
         style="fill:#e0de0a"
         d="m 140.85868,211.5 c 4.84237,-9.30117 15.32491,-24.09615 16.85514,-23.78922 0.57799,0.11594 0.99133,-0.39461 0.91853,-1.13454 -0.19081,-1.93961 12.37017,-15.69272 13.62446,-14.91752 0.58293,0.36027 0.75931,0.17638 0.39547,-0.41232 C 171.76584,169.8121 196.85653,148 199.39286,148 c 0.29963,0 3.75845,-2.07891 7.68627,-4.61981 20.55434,-13.29653 52.3006,-23.34522 79.17087,-25.06007 5.58336,-0.35633 9.7433,-0.23717 9.73431,0.27882 -0.009,0.49558 -3.94613,3.47911 -8.75,6.63005 -4.80387,3.15095 -14.80931,11.1939 -22.23431,17.87321 -11.20701,10.08151 -22.8959,20.52855 -28.41684,25.3978 -0.62361,0.55 -3.38568,3.025 -6.13794,5.5 -2.75225,2.475 -8.58327,7.65 -12.95782,11.5 -4.37455,3.85 -8.88591,7.9 -10.02525,9 -1.13934,1.1 -3.17191,2 -4.51683,2 -1.34493,0 -2.67032,0.25903 -2.94532,0.57562 -0.53045,0.61066 -6.37755,2.62554 -33.1935,11.43827 -9.18142,3.01736 -17.28142,5.48888 -18,5.49227 -0.71857,0.003 -2.61095,0.68644 -4.20528,1.51789 -1.59433,0.83144 -3.13281,1.27769 -3.41885,0.99165 -0.28604,-0.28603 -1.413,0.26842 -2.50436,1.23212 -1.3457,1.18829 -0.64391,-0.8224 2.18067,-6.24782 z m -18.43621,-0.68745 c 1.72728,-6.2446 2.60207,-10.60743 4.07288,-20.31255 0.91688,-6.05 1.92469,-11.675 2.2396,-12.5 0.3149,-0.825 0.75025,-2.625 0.96745,-4 0.21719,-1.375 1.31298,-7.45 2.43507,-13.5 2.72169,-14.67452 4.03612,-23.48343 3.6662,-24.56969 -0.16702,-0.49045 -2.73157,0.23419 -5.69901,1.61031 -2.96743,1.37612 -5.56001,2.33736 -5.76129,2.13608 -0.20128,-0.20128 4.02662,-4.59975 9.39533,-9.77439 C 167.83363,97.039882 208.09272,75.734143 254.5,65.993545 l 8,-1.67915 L 263,43.907198 263.5,23.5 268,23.612467 c 2.475,0.06186 7.3125,0.174357 10.75,0.25 L 285,24 V 62.821998 101.644 l -9.75,1.26335 c -19.69715,2.55224 -47.63119,10.92303 -62.52658,18.73687 -21.25353,11.1492 -34.40923,20.53967 -51.28861,36.60953 -3.90168,3.71457 -7.46781,6.41457 -7.92472,6 -0.45691,-0.41456 -0.55282,-0.26533 -0.21315,0.33162 0.33968,0.59695 -2.31939,4.61794 -5.90905,8.93554 -7.57854,9.11537 -18.49127,25.22332 -22.58616,33.33874 -1.56531,3.10219 -2.63597,4.881 -2.37926,3.9529 z m 16.10399,-27.61942 c -0.30789,-0.30789 -1.11479,-6.4e-4 -1.79313,0.68278 -0.98026,0.98762 -0.8654,1.10248 0.5598,0.5598 0.98622,-0.37553 1.54122,-0.93469 1.23333,-1.24258 z M 309,82 c 0,-18.381414 0.14163,-19.999902 1.75,-19.998787 4.57684,0.0032 29.38284,3.236947 34.33699,4.47626 C 351.47666,68.075889 358,71.601878 358,73.457196 c 0,0.692804 -2.3625,2.876603 -5.25,4.852887 -2.8875,1.976283 -11.5453,8.114994 -19.23956,13.64158 C 320.02709,101.63641 319.33053,102 314.26044,102 H 309 Z"
         id="path7" />
      <path
         style="fill:#27c6db"
         d="m 385.45757,356.93135 c -0.41437,-0.67048 -0.90577,-2.5276 -1.09199,-4.12694 -0.18621,-1.59933 -0.81997,-5.6971 -1.40835,-9.10615 -0.58839,-3.40904 -1.71146,-10.84079 -2.49573,-16.51498 -0.78427,-5.6742 -1.64168,-10.66581 -1.90537,-11.09246 -0.26369,-0.42665 1.64081,-3.19061 4.23222,-6.14212 6.53373,-7.44167 21.24249,-24.06348 28.71408,-32.4487 3.43052,-3.85 8.86522,-10.00096 12.07711,-13.6688 l 5.8398,-6.66879 3.04033,2.09014 c 1.67218,1.14958 6.08285,4.51149 9.80149,7.47092 3.71864,2.95942 7.14645,5.14265 7.61736,4.85161 0.47091,-0.29104 1.10745,-2.45199 1.41452,-4.80212 0.66194,-5.06588 6.0849,-36.28865 8.03698,-46.27296 l 1.3686,-7 4.52479,9.5 c 4.89116,10.26925 8.73314,21.04535 11.75116,32.96008 2.62323,10.35612 5.56963,30.84087 4.5703,31.77481 -0.45027,0.42081 -1.01957,0.20261 -1.26511,-0.48489 -0.47694,-1.33543 -7.88034,-1.77369 -8.44643,-0.5 -0.18333,0.4125 -3.70833,3.44898 -7.83333,6.74774 -4.125,3.29876 -7.725,6.23539 -8,6.52584 -0.275,0.29045 -2.52351,2.09147 -4.99668,4.00226 -5.15649,3.98393 -7.70201,6.12578 -12.84318,10.80647 -2.01308,1.83277 -6.02264,5.14933 -8.91014,7.37014 -2.8875,2.22081 -5.25,4.40345 -5.25,4.85031 0,0.44685 -0.7875,1.06282 -1.75,1.36882 -0.9625,0.30599 -2.875,1.5741 -4.25,2.81802 -1.375,1.24392 -4.975,4.2802 -8,6.74729 -3.025,2.46709 -5.725,4.7168 -6,4.99936 -0.275,0.28256 -2.62634,2.22223 -5.2252,4.31037 -2.59885,2.08815 -5.31916,4.33815 -6.04512,5 -6.00603,5.47568 -6.54147,5.81693 -7.27211,4.63473 z M 364.5,330 c 0.99549,-1.1 2.03498,-2 2.30998,-2 0.275,0 -0.31449,0.9 -1.30998,2 -0.99549,1.1 -2.03498,2 -2.30998,2 -0.275,0 0.31449,-0.9 1.30998,-2 z m -52.22653,-0.63346 c 0.32036,-0.51836 0.8416,-7.00039 1.1583,-14.40451 1.25297,-29.29282 2.50224,-62.52797 3.14406,-83.64347 l 0.67422,-22.18144 -5.62503,-10.53357 C 308.53126,192.81009 306,187.1766 306,186.08468 c 0,-1.09191 -0.60992,-2.34516 -1.35539,-2.78499 -1.75651,-1.03636 -26.7595,-50.85147 -25.93631,-51.67465 0.34377,-0.34377 20.91253,-0.60646 45.70837,-0.58374 l 45.08333,0.0413 10.77357,5.23513 c 6.81969,3.31386 10.43681,5.59243 9.85597,6.2087 -0.50467,0.53547 -2.11231,7.27357 -3.57253,14.97357 -1.46023,7.7 -3.04793,14.9 -3.52823,16 -0.4803,1.1 -1.13443,4.025 -1.45361,6.5 -0.79343,6.15242 -5.62098,32.14594 -6.31453,34 -0.30861,0.825 -0.69914,2.175 -0.86785,3 -4.66605,22.81682 -5.83246,30 -4.87144,30 0.83078,0 7.89499,-5.31176 8.31198,-6.25 0.18334,-0.4125 0.97084,-0.75 1.75,-0.75 0.77917,0 1.41667,-0.45 1.41667,-1 0,-0.55 0.6375,-1 1.41667,-1 0.77916,0 1.56666,-0.35408 1.75,-0.78684 0.18333,-0.43277 4.08084,-3.47027 8.66114,-6.75 4.5803,-3.27974 10.2053,-7.3174 12.5,-8.97259 2.2947,-1.65518 9.23469,-6.55924 15.42219,-10.8979 6.1875,-4.33865 11.25,-8.53369 11.25,-9.3223 0,-0.78861 -1.63644,-4.20956 -3.63653,-7.60211 -2.0001,-3.39254 -4.40639,-7.51826 -5.34733,-9.16826 -0.94094,-1.65 -3.3545,-5.56588 -5.36347,-8.70196 C 415.6437,172.66196 414,169.85406 414,169.55827 c 0,-0.2958 -1.97752,-3.62294 -4.39448,-7.39365 -5.92003,-9.23584 -8.15246,-13.60746 -6.43812,-12.60731 8.26816,4.82364 29.40394,24.46358 38.67794,35.94059 5.92029,7.32664 14.15466,19.3572 14.15466,20.68021 0,0.90161 -5.31453,3.40205 -16.5,7.76312 -4.4,1.7155 -8.9,3.53024 -10,4.03276 -1.1,0.50252 -6.05,2.56593 -11,4.58537 -4.95,2.01944 -11.3748,4.74472 -14.27734,6.05617 -2.90253,1.31146 -5.71503,2.38447 -6.25,2.38447 -2.39324,0 -0.35256,2.13308 8.02734,8.39083 4.95,3.69644 9,6.9234 9,7.17103 0,0.24762 -4.6125,5.53824 -10.25,11.75692 -10.46387,11.54262 -21.12843,23.47069 -26.47418,29.61077 l -2.98587,3.42955 -0.61394,-3.42955 C 374.33834,286.0433 373.35063,279.1 372.4811,272.5 c -0.86953,-6.6 -2.1073,-14.61448 -2.75061,-17.80995 -1.00926,-5.01327 -1.34066,-5.57608 -2.4168,-4.10436 -1.00222,1.37061 -1.25677,-8.6698 -1.29604,-51.12233 -0.0269,-29.05536 -0.25427,-53.03331 -0.5053,-53.28434 -0.34626,-0.34626 -31.76513,-0.52961 -39.26235,-0.22912 -0.98967,0.0397 -1.25,17.53168 -1.25,83.99108 0,49.55947 -0.37402,84.17214 -0.91315,84.50534 -0.50223,0.3104 -2.96385,3.67713 -5.47026,7.48163 -2.50642,3.80449 -5.09003,7.24662 -5.74136,7.64916 -0.65134,0.40255 -0.92213,0.30779 -0.60176,-0.21057 z M 321.96937,313.5 c 0,-0.55 -0.43621,-0.325 -0.96937,0.5 -0.53316,0.825 -0.96937,1.95 -0.96937,2.5 0,0.55 0.43621,0.325 0.96937,-0.5 0.53316,-0.825 0.96937,-1.95 0.96937,-2.5 z m -5.27638,-24.23097 c -0.25354,-0.97297 -0.47766,-0.41903 -0.49804,1.23097 -0.0204,1.65 0.18706,2.44606 0.46099,1.76903 0.27392,-0.67703 0.29059,-2.02703 0.0371,-3 z M 318.66228,211.75 c -0.27741,-0.6875 -0.50439,-0.125 -0.50439,1.25 0,1.375 0.22698,1.9375 0.50439,1.25 0.27741,-0.6875 0.27741,-1.8125 0,-2.5 z M 537.232,313 c 0,-1.925 0.2058,-2.7125 0.45733,-1.75 0.25152,0.9625 0.25152,2.5375 0,3.5 -0.25153,0.9625 -0.45733,0.175 -0.45733,-1.75 z m -39.67467,-34.28298 c -3.3303,-29.85317 -14.7176,-61.20443 -31.67869,-87.21702 -14.85405,-22.7811 -31.8754,-39.84404 -56.1197,-56.25678 -5.35758,-3.62694 -9.63258,-6.70102 -9.5,-6.83128 0.28895,-0.28389 33.42224,-12.94819 39.5257,-15.10762 3.73696,-1.32216 4.12043,-1.72218 3,-3.12954 -0.70655,-0.88748 1.63653,0.62263 5.20684,3.35581 7.46408,5.71396 29.51732,27.34817 36.15643,35.46941 24.33845,29.77186 41.47647,65.36357 48.99437,101.75 l 2.32439,11.25 14.01667,0.18292 c 7.70916,0.10061 16.94166,0.21311 20.51666,0.25 l 6.5,0.0671 0.28093,11.05563 0.28094,11.05564 -39.4055,0.16139 -39.4055,0.16139 z m 76.69267,2.6207 c -0.6875,-0.27741 -1.8125,-0.27741 -2.5,0 -0.6875,0.27741 -0.125,0.50439 1.25,0.50439 1.375,0 1.9375,-0.22698 1.25,-0.50439 z M 258.66667,262.33333 C 258.3,261.96667 258,261.20167 258,260.63333 c 0,-0.6266 0.46577,-0.56756 1.18333,0.15 0.65084,0.65084 0.95084,1.41584 0.66667,1.7 -0.28417,0.28417 -0.81667,0.21667 -1.18333,-0.15 z M 244.996,226.79662 c -0.2728,-7.53686 -0.14449,-13.35035 0.28514,-12.91886 0.42962,0.43148 0.65282,6.598 0.49599,13.70338 L 245.49199,240.5 Z m -26.47286,-16.75918 c -0.3405,-0.55094 0.70247,-0.87166 2.439,-0.75 1.66864,0.11691 3.03478,0.55006 3.03587,0.96256 0.003,1.10114 -4.77767,0.91553 -5.47487,-0.21256 z M 215.33333,199.5 c 0,-0.72013 0.6,-1.07908 1.33334,-0.79767 C 217.4,198.98374 218,199.34269 218,199.5 c 0,0.15731 -0.6,0.51626 -1.33333,0.79767 -0.73334,0.28141 -1.33334,-0.0775 -1.33334,-0.79767 z M 392.8125,81.316886 c 0.72187,-0.288871 1.58438,-0.253344 1.91667,0.07895 0.33229,0.332292 -0.25834,0.568641 -1.3125,0.52522 -1.16495,-0.04798 -1.4019,-0.284941 -0.60417,-0.604167 z M 388,80 c -1.29269,-0.835399 -1.26629,-0.971491 0.19098,-0.984687 0.93004,-0.0084 1.9691,0.434687 2.30902,0.984687 0.78218,1.265597 -0.54163,1.265597 -2.5,0 z m -8,-3.166667 C 380,76.375 380.42344,76 380.94098,76 c 0.51754,0 1.17275,0.375 1.45601,0.833333 0.28327,0.458334 -0.14017,0.833334 -0.94098,0.833334 -0.8008,0 -1.45601,-0.375 -1.45601,-0.833334 z M 376.5,76 c -0.33992,-0.55 -1.63047,-1 -2.86789,-1 -1.23742,0 -3.12336,-0.711736 -4.19098,-1.581635 -1.49158,-1.215344 -1.55995,-1.463453 -0.29522,-1.071327 0.90525,0.28067 3.49275,1.063635 5.75,1.739923 C 377.15316,74.763249 379,75.695346 379,76.158288 379,77.325892 377.25101,77.215154 376.5,76 Z"
         id="path6" />
      <path
         style="fill:#f76744"
         d="m 162.86082,493.72987 c -13.20922,-9.52541 -16.38313,-12.21937 -29.69124,-25.20149 -13.21159,-12.88795 -15.50908,-15.69143 -12.13665,-14.80952 1.09903,0.28741 2.24278,0.91824 2.54167,1.40185 0.29889,0.48361 1.17761,0.87929 1.95271,0.87929 0.77511,0 5.58605,1.75118 10.69099,3.89152 5.10493,2.14033 12.8817,5.31408 17.2817,7.05278 4.4,1.7387 8.9,3.53782 10,3.99804 10.10041,4.22589 17.71469,7.05766 18.97718,7.05766 0.83755,0 1.52282,0.45 1.52282,1 0,0.55 0.74408,1 1.65351,1 0.90943,0 4.05235,1.13483 6.98427,2.52185 2.93192,1.38702 6.68784,2.79327 8.34649,3.125 4.93323,0.98665 3.48931,3.18726 -3.48427,5.31022 -2.2,0.66975 -5.9076,2.07839 -8.2391,3.13032 -2.33151,1.05194 -5.06901,1.91261 -6.08333,1.91261 -1.01433,0 -2.15264,0.3084 -2.52957,0.68534 -0.65474,0.65473 -7.60415,3.29007 -8.648,3.27947 -0.275,-0.003 -4.38763,-2.80852 -9.13918,-6.23494 z M 107.85354,440.80024 C 101.88252,432.704 95.415117,422.49583 90.162642,412.87689 85.875,405.02487 85.274135,403.43336 87,404.5 c 0.55,0.33992 0.989994,0.029 0.977764,-0.69098 -0.02838,-1.6707 -3.925741,-6.71347 -3.955528,-5.11804 C 84.010006,399.34602 84.45,400.16008 85,400.5 c 0.55,0.33992 0.992419,1.15398 0.983153,1.80902 -0.0093,0.65504 -0.980138,-0.31366 -2.157494,-2.15267 -1.281757,-2.00207 -1.747268,-3.60699 -1.160212,-4 C 83.677131,395.47908 85.246264,392 84.540044,392 c -0.218453,0 -1.060622,0.66344 -1.871488,1.4743 -1.299069,1.29907 -1.541545,1.29907 -2.040044,0 C 80.276098,392.55593 80.662723,392 81.65383,392 c 1.295664,0 1.36163,-0.27645 0.355308,-1.48899 -0.679663,-0.81894 -1.58761,-1.27153 -2.01766,-1.00574 -0.846105,0.52292 -1.242111,-0.28621 -4.040308,-8.25527 -1.013896,-2.8875 -1.452583,-5.25 -0.974861,-5.25 0.804363,0 2.271457,3.7308 3.342527,8.5 0.318769,1.4194 0.482837,1.17297 0.565163,-0.84887 0.133628,-3.28178 -2.704099,-9.88035 -3.924658,-9.126 -1.973082,1.21943 -1.892411,-1.78923 0.114886,-4.28479 l 2.204197,-2.74034 -0.632097,2.64574 c -0.456907,1.91246 -0.189579,2.81555 0.964542,3.25843 0.878152,0.33698 1.366584,1.2122 1.085405,1.94494 -0.281178,0.73274 -0.109758,1.96645 0.380933,2.74157 0.73029,1.15361 0.894946,1.10691 0.90748,-0.25735 0.0096,-1.04185 1.608595,-2.25426 4.265313,-3.23406 l 4.25,-1.5674 -4.75,0.24127 c -3.956098,0.20095 -4.75,-0.0524 -4.75,-1.51593 0,-2.2142 0.727147,-2.19124 10.5,0.33152 4.4,1.13581 9.942569,2.47252 12.31682,2.97047 5.23605,1.09815 6.18318,1.63424 6.18318,3.49982 0,0.79254 0.867,1.44098 1.92668,1.44098 1.05967,0 2.11906,0.5625 2.3542,1.25 0.23513,0.6875 0.25956,0.2375 0.0543,-1 -0.53673,-3.23542 0.58731,-2.77087 1.81469,0.75 0.5752,1.65 1.46762,3 1.98317,3 0.54943,0 0.50894,-0.8005 -0.0978,-1.93426 -1.39978,-2.61552 -1.30175,-3.73241 0.32762,-3.73241 0.85815,0 1.19633,0.77146 0.91325,2.08334 -0.33048,1.53155 -0.19652,1.72674 0.50578,0.73696 1.4597,-2.05721 2.87199,3.27805 2.60642,9.84637 -0.1223,3.025 0.0328,4.825 0.34463,4 0.31186,-0.825 0.99599,-1.78027 1.52031,-2.12283 0.58653,-0.3832 0.49767,-1.47418 -0.23097,-2.83564 -0.65134,-1.21705 -0.98978,-2.40731 -0.75207,-2.64501 0.2377,-0.23771 1.92115,2.38834 3.74098,5.83564 1.81984,3.44731 5.48682,9.68779 8.14884,13.86773 4.66356,7.32279 5.7289,9.5675 4.04762,8.52841 -0.43583,-0.26936 -0.86188,0.43233 -0.94677,1.5593 -0.14475,1.92157 -0.0735,1.93849 1.14509,0.27196 1.20606,-1.64938 1.46759,-1.54967 3.63895,1.38725 2.46073,3.32832 3.14445,5.23911 3.16319,8.84013 0.009,1.73224 0.27959,1.94016 1.30138,1 0.9056,-0.83326 0.98913,-1.63391 0.28032,-2.68694 -0.55532,-0.825 0.79914,0.48166 3.00992,2.90369 2.21079,2.42203 3.90902,4.89703 3.77386,5.5 -0.13516,0.60297 -0.0507,0.74003 0.18761,0.30457 0.23834,-0.43545 1.05964,-0.27197 1.8251,0.36331 0.76545,0.63527 1.10216,1.62358 0.74824,2.19625 -0.35392,0.57266 -0.18411,0.75728 0.37736,0.41027 0.56148,-0.34701 1.82575,0.25846 2.8095,1.34549 0.98375,1.08703 1.60639,1.97723 1.38365,1.97821 -0.22275,9.9e-4 -8.95499,1.16081 -19.40499,2.57739 -10.45,1.41658 -21.025,2.78838 -23.5,3.04844 l -4.5,0.47285 z M 115,443.39301 C 115,443.17686 114.325,443 113.5,443 c -0.825,0 -1.5,0.43588 -1.5,0.96862 0,0.53273 0.675,0.70959 1.5,0.39301 0.825,-0.31659 1.5,-0.75246 1.5,-0.96862 z M 121.5,444 c 0.36839,-0.59607 -0.71858,-0.95974 -2.69098,-0.90032 -3.11109,0.0937 -3.15948,0.14757 -0.80902,0.90032 1.375,0.44035 2.58594,0.8455 2.69098,0.90032 0.10504,0.0548 0.4691,-0.35032 0.80902,-0.90032 z m 9.75,-1.70573 c -1.2375,-0.23836 -3.2625,-0.23836 -4.5,0 -1.2375,0.23835 -0.225,0.43337 2.25,0.43337 2.475,0 3.4875,-0.19502 2.25,-0.43337 z m 8.66667,-1.93495 c 1.00348,-0.86538 -3.5663,-0.22744 -4.91667,0.68637 -1.09546,0.74131 -0.69092,0.83408 1.5,0.34401 1.65,-0.36908 3.1875,-0.83275 3.41667,-1.03038 z m -22.26305,-0.49335 c -1.32326,-0.76916 -2.15905,-0.76054 -2.95,0.0304 -0.80483,0.80483 -0.30495,1.09539 1.84638,1.07321 2.58611,-0.0267 2.72225,-0.16279 1.10362,-1.10362 z m 10.07555,0.52986 c -0.33229,-0.33229 -1.1948,-0.36781 -1.91667,-0.0789 -0.79773,0.31922 -0.56078,0.55618 0.60417,0.60416 1.05416,0.0434 1.64479,-0.19293 1.3125,-0.52522 z M 153.5,440 c 0.33992,-0.55 0.14148,-1 -0.44098,-1 -0.58246,0 -1.05902,0.45 -1.05902,1 0,0.55 0.19844,1 0.44098,1 0.24254,0 0.7191,-0.45 1.05902,-1 z m -5.52896,-8.96094 c 0.80907,-0.51167 1.168,-1.23335 0.79762,-1.60373 -0.37038,-0.37039 -1.40199,0.0551 -2.29247,0.94562 -1.75951,1.75952 -0.86761,2.15218 1.49485,0.65811 z M 134,423 c 0,-0.55 -0.45,-1 -1,-1 -0.55,0 -1,0.45 -1,1 0,0.55 0.45,1 1,1 0.55,0 1,-0.45 1,-1 z m 6.88603,-2.63733 c -0.87116,-1.04968 -1.48417,-1.11115 -2.51871,-0.25256 -1.84099,1.52789 -1.76236,1.63989 1.15138,1.63989 2.03456,0 2.29739,-0.26668 1.36733,-1.38733 z M 92.009247,410.01496 C 92.774105,411.25253 95,410.57759 95,409.1081 c 0,-1.26255 -4.365013,-0.5578 -4.617891,0.74557 -0.161486,0.83233 -0.06596,0.85003 0.313942,0.0582 0.39563,-0.82463 0.757376,-0.79622 1.313196,0.10311 z m 6.71992,-1.61913 c -0.332292,-0.33229 -1.194792,-0.36781 -1.916667,-0.0789 -0.797733,0.31922 -0.560776,0.55618 0.604167,0.60416 1.054166,0.0434 1.644791,-0.19293 1.3125,-0.52522 z M 108,405 c 1.16887,-0.75538 0.89294,-0.97275 -1.25,-0.98469 C 105.2375,404.00689 104,404.45 104,405 c 0,1.26441 2.04347,1.26441 4,0 z m 6.41821,-1.60699 C 115.2882,403.05917 116,402.33602 116,401.78602 c 0,-0.55 -0.66059,-0.74651 -1.46797,-0.43668 -0.80739,0.30982 -1.73395,0.13297 -2.05902,-0.39301 -0.32508,-0.52598 -2.47699,-0.90814 -4.78203,-0.84924 l -4.19098,0.10709 4.41197,0.98379 c 3.19224,0.71181 4.02162,1.23089 3,1.8776 -1.15744,0.73268 -1.11125,0.89656 0.25624,0.90912 0.91752,0.008 2.38002,-0.25783 3.25,-0.59168 z m 9.05611,-5.34335 c 1.77808,-3.43842 1.92043,-4.41167 0.51857,-3.54526 -1.57391,0.97272 -4.16227,6.4956 -3.04425,6.4956 0.55,0 1.68656,-1.32765 2.52568,-2.95034 z m 2.33255,-0.57612 c -0.30789,-0.30789 -0.86705,0.24711 -1.24258,1.23333 -0.54268,1.4252 -0.42782,1.54006 0.5598,0.5598 0.68342,-0.67834 0.99067,-1.48524 0.68278,-1.79313 z m -38.588912,-3.65558 c -0.626137,-0.62614 -0.765512,0.0314 -0.393454,1.85622 0.426728,2.09296 0.67819,2.34442 0.969603,0.9696 0.216399,-1.02092 -0.04287,-2.29254 -0.576149,-2.82582 z M 108,383 c 0,-0.55 -1.0125,-0.99311 -2.25,-0.98469 -1.81944,0.0124 -1.96296,0.20082 -0.75,0.98469 1.93876,1.25292 3,1.25292 3,0 z m -15.25,-7.68933 c -0.9625,-0.25152 -2.5375,-0.25152 -3.5,0 -0.9625,0.25153 -0.175,0.45733 1.75,0.45733 1.925,0 2.7125,-0.2058 1.75,-0.45733 z m 81.47233,56.36711 c -3.45271,-3.45902 -6.15271,-6.48907 -6,-6.73345 0.15272,-0.24438 0.0941,-0.33573 -0.13032,-0.20301 C 167.49711,425.0932 165,422.88545 165,422.00761 c 0,-0.41113 1.9125,-0.99871 4.25,-1.30573 9.72764,-1.2777 14.49339,-4.22822 18.17961,-11.25517 2.18726,-4.1695 2.88734,-15.36874 1.27815,-20.44671 -0.6818,-2.15147 0.53545,-4.29813 8.73123,-15.3979 11.20914,-15.18083 10.83421,-14.75221 9.64653,-11.0281 -0.51323,1.6093 -2.35809,8.101 -4.09969,14.426 -1.7416,6.325 -5.18472,18.25 -7.65138,26.5 -2.46666,8.25 -5.15654,17.7 -5.97752,21 -0.82097,3.3 -1.87133,6.9 -2.33413,8 -0.46279,1.1 -1.09313,2.7875 -1.40074,3.75 -1.09858,3.43742 -4.94431,1.89496 -11.39973,-4.57222 z M 182,432.5 c 0,-0.825 -0.40186,-1.5 -0.89301,-1.5 -0.49116,0 -1.15203,0.675 -1.46862,1.5 -0.35062,0.91371 -0.002,1.5 0.89301,1.5 0.80774,0 1.46862,-0.675 1.46862,-1.5 z m -7,-3.5 c 0,-0.55 -0.47656,-1 -1.05902,-1 -0.58246,0 -0.7809,0.45 -0.44098,1 0.33992,0.55 0.81648,1 1.05902,1 0.24254,0 0.44098,-0.45 0.44098,-1 z m 5,0 c 0,-0.55 -0.45,-1 -1,-1 -0.55,0 -1,0.45 -1,1 0,0.55 0.45,1 1,1 0.55,0 1,-0.45 1,-1 z m -3.38404,-6.55841 c -0.30426,-0.79288 -1.12981,-1.40606 -1.83458,-1.36264 -1.00364,0.0618 -1.01044,0.18827 -0.0314,0.58333 0.6875,0.27741 1.3022,1.70439 1.366,3.17105 0.0782,1.79785 0.26867,2.07748 0.58457,0.85826 0.25772,-0.99463 0.21964,-2.45713 -0.0846,-3.25 z M 171.75,422.31067 c -0.9625,-0.25152 -2.5375,-0.25152 -3.5,0 -0.9625,0.25153 -0.175,0.45733 1.75,0.45733 1.925,0 2.7125,-0.2058 1.75,-0.45733 z m -27.95897,-27.85992 c -2.26044,-3.73666 -5.65389,-10.64911 -4.59646,-9.36298 0.71799,0.87327 1.91515,1.38253 2.66037,1.13169 1.00566,-0.33852 1.17233,0.15442 0.64657,1.91223 -0.6922,2.31428 -0.67251,2.32268 0.86326,0.36831 1.02853,-1.30888 1.58261,-1.52976 1.60343,-0.63922 0.0196,0.83781 0.81803,0.4535 2.07757,-1 l 2.04577,-2.36078 -1.90696,4 c -1.04883,2.2 -2.11203,4.65284 -2.36268,5.45075 -0.25065,0.79791 -0.71454,1.02291 -1.03087,0.5 z M 145,391 c 0,-0.55 -0.19844,-1 -0.44098,-1 -0.24254,0 -0.7191,0.45 -1.05902,1 -0.33992,0.55 -0.14148,1 0.44098,1 0.58246,0 1.05902,-0.45 1.05902,-1 z m 10,-12.5 c 1.86371,-1.375 2.82458,-2.5 2.13526,-2.5 -0.68931,0 -0.97795,-0.44552 -0.64141,-0.99004 0.38769,-0.62731 1.08141,-0.55144 1.89341,0.20708 1.02514,0.95762 0.60555,1.65586 -2.09728,3.49004 -4.54826,3.08654 -5.53872,2.92754 -1.28998,-0.20708 z m 6.5,-3.5 c -1.68588,-0.72445 -1.49883,-0.87047 1.19098,-0.92971 1.75504,-0.0387 3.4691,0.37971 3.80902,0.92971 0.74125,1.19936 -2.20893,1.19936 -5,0 z m 7.04131,0.125 c 0.8466,-0.84707 5.43123,-0.88958 4.90957,-0.0455 -0.22792,0.36879 -1.56636,0.67052 -2.97431,0.67052 -1.40795,0 -2.27881,-0.28125 -1.93526,-0.625 z M 170,372 c 0,-0.55 0.45,-1 1,-1 0.55,0 1,0.45 1,1 0,0.55 -0.45,1 -1,1 -0.55,0 -1,-0.45 -1,-1 z m 4.91123,-0.69431 c 0.60474,-1.20687 1.45593,-2.41457 1.89154,-2.6838 0.43561,-0.26922 0.71622,-1.75678 0.62357,-3.30569 -0.25455,-4.25584 -0.34342,-4.48548 -1.46702,-3.79106 -0.57237,0.35375 -0.76789,1.6178 -0.43449,2.80902 0.42779,1.52847 0.32941,1.76657 -0.33432,0.80908 -0.7242,-1.04472 -1.11372,-1.07651 -1.69363,-0.1382 -0.42043,0.68028 -0.14804,1.59252 0.61665,2.06512 1.09088,0.67421 1.11697,1.09934 0.12811,2.0882 C 173.25279,370.14721 173,370.0539 173,368.7 c 0,-0.935 -0.47643,-1.7 -1.05873,-1.7 -0.5823,0 0.87428,-2.475 3.23683,-5.5 2.36256,-3.025 4.62315,-5.5 5.02354,-5.5 0.78188,0 2.79836,3.35565 2.79836,4.65676 0,0.43354 -0.7188,-0.23798 -1.59734,-1.49227 -1.51234,-2.15917 -1.66713,-2.18507 -2.90899,-0.48672 -0.90023,1.23113 -1.01203,2.35367 -0.35642,3.57868 0.52538,0.98169 0.70662,2.18715 0.40276,2.67881 -0.30386,0.49165 -0.10212,1.04485 0.4483,1.22933 0.55043,0.18448 -0.38914,1.91041 -2.08791,3.83541 -1.80208,2.04206 -2.63068,2.58595 -1.98917,1.30569 z M 156,371.61663 c 0,-0.21085 0.9,-0.61872 2,-0.90638 1.1,-0.28766 2,-0.11514 2,0.38337 0,0.49851 -0.9,0.90638 -2,0.90638 -1.1,0 -2,-0.17252 -2,-0.38337 z m -84,-1.4986 c 0,-0.55 0.45,-1.27811 1,-1.61803 0.55,-0.33992 1,-0.16803 1,0.38197 0,0.55 -0.45,1.27811 -1,1.61803 -0.55,0.33992 -1,0.16803 -1,-0.38197 z m 91.56459,-0.0135 c -0.3044,-0.49252 1.27224,-1.0696 3.50364,-1.2824 3.49713,-0.3335 3.81503,-0.2099 2.3033,0.8955 -2.03152,1.48548 -5.00552,1.68363 -5.80694,0.3869 z M 180,364.62244 c 0,-0.20765 0.7875,-0.99515 1.75,-1.75 1.58606,-1.24387 1.62143,-1.2085 0.37756,0.37756 C 180.82119,364.91575 180,365.44548 180,364.62244 Z M 184.77304,358.5 c 0.57417,-1.1 3.55116,-5.375 6.61553,-9.5 5.99323,-8.0676 6.41918,-9 4.11143,-9 -0.825,0 -1.5,-0.45 -1.5,-1 0,-0.55 -0.45,-1 -1,-1 -1.36541,0 -1.27152,2.74283 0.10965,3.20322 0.69419,0.23139 0.50699,0.87005 -0.5,1.70578 C 191.17439,344.10016 191,343.79827 191,340.12244 191,337.23249 190.57646,336 189.58333,336 c -0.77916,0 -1.61756,-0.5625 -1.86309,-1.25 -0.82405,-2.30734 -2.1706,0.32831 -2.84128,5.56136 -0.36574,2.85375 -0.67683,-13.03636 -0.6913,-35.31136 -0.0145,-22.275 -0.0626,-41.29682 -0.10699,-42.27071 -0.0748,-1.64267 -1.54487,-1.75113 -20.33067,-1.5 L 143.5,261.5 142.98075,297 c -0.28559,19.525 -0.62747,35.05 -0.75974,34.5 -0.13227,-0.55 -0.4228,-7.2392 -0.64563,-14.86488 -0.48578,-16.62448 -2.46183,-21.30705 -2.77893,-6.58512 l -0.20354,9.45 -0.30609,-8.5 c -0.31429,-8.72776 -1.6143,-13 -3.9558,-13 C 133.59896,298 133,297.5125 133,296.91667 c 0,-1.77562 -1.5509,-0.72041 -7.8387,5.33333 -3.28477,3.1625 -6.23983,5.75 -6.56681,5.75 C 118.26752,308 118,304.65329 118,300.56287 v -7.43713 l 3.75,0.48615 c 2.0625,0.26738 4.9875,0.67784 6.5,0.91213 3.42267,0.53018 3.47973,-0.44802 0.85874,-14.72326 -1.04019,-5.66542 -2.42652,-13.53787 -3.08073,-17.49434 -0.65421,-3.95647 -1.55317,-7.33147 -1.99768,-7.5 -0.44451,-0.16853 0.67119,-4.80642 2.47934,-10.30642 4.24182,-12.90275 5.92559,-16.71354 6.96634,-15.76665 0.46346,0.42166 0.5656,-0.006 0.22699,-0.95132 -0.33861,-0.94489 -0.23647,-1.95233 0.22698,-2.23876 0.46345,-0.28643 1.0639,0.32533 1.33433,1.35947 0.33743,1.29031 1.78498,2.09874 4.61369,2.57665 2.2671,0.38302 4.122,1.10685 4.122,1.60851 0,0.50165 0.70295,0.9121 1.5621,0.9121 0.85916,0 3.89666,0.70211 6.75,1.56024 2.85335,0.85814 7.6629,2.27117 10.6879,3.14008 3.025,0.86891 6.4,1.90749 7.5,2.30795 1.1,0.40046 6.725,2.18957 12.5,3.9758 5.775,1.78624 11.28139,3.64556 12.23643,4.13182 0.95504,0.48626 2.64254,0.88411 3.75,0.88411 1.10746,0 2.02046,0.5625 2.02888,1.25 0.0102,0.83333 0.33844,0.75 0.98469,-0.25 0.6437,-0.99605 0.99962,5.72325 1.05941,20 0.21652,51.69932 0.30076,54.0684 1.86702,52.50214 1.23906,-1.23905 1.26327,-2.39372 0.16595,-7.9143 -3.86666,-19.45311 10.74529,-36.58183 30.1708,-35.36743 3.43025,0.21445 7.02432,0.75073 7.98682,1.19173 1.5887,0.72793 1.75,0.0546 1.75,-7.30515 C 245,267.369 245.41557,264 246,264 c 0.55,0 1.01431,-0.7875 1.0318,-1.75 0.0286,-1.5712 0.15627,-1.58911 1.25,-0.17536 1.33638,1.7274 7.64675,4.24244 7.83662,3.12334 0.0651,-0.38389 0.054,-1.06893 -0.0248,-1.52231 -0.0788,-0.45338 0.2983,-0.55147 0.83791,-0.21797 0.53961,0.33349 0.69763,1.34506 0.35117,2.24793 -0.46426,1.20984 -0.21154,1.48103 0.96091,1.03112 3.44867,-1.32338 2.46559,2.67079 -2.83576,11.52144 -3.04461,5.083 -5.92331,9.63572 -6.39711,10.11716 -0.49044,0.49835 -2.85051,-0.0875 -5.47984,-1.36038 -6.53236,-3.16226 -16.52424,-2.6087 -22.33616,1.23745 -8.38854,5.55127 -12.05847,16.75344 -8.77616,26.78851 l 1.66755,5.09824 -5.29308,7.16208 C 199.5729,339.7771 184.78073,359.48064 184.24492,360 c -0.2837,0.275 -0.0461,-0.4 0.52812,-1.5 z M 66.36073,347 64.5,337.5 44.378556,337.86252 c -11.066795,0.19938 -20.362157,-0.0256 -20.656361,-0.5 -0.294351,-0.47463 6.909588,-0.72852 16.018544,-0.56457 l 16.55346,0.29795 -0.757993,-9.29795 c -0.416897,-5.11387 -0.783091,-9.88123 -0.813766,-10.59413 -0.04379,-1.0177 -3.457849,-1.23255 -15.890492,-1 -8.709095,0.1629 -15.834095,-0.0413 -15.833333,-0.45382 7.62e-4,-0.4125 17.729119,-0.75 39.39635,-0.75 h 39.394965 l 0.42885,4.25 c 0.41405,4.10336 0.21927,4.44652 -5.644968,9.94561 -3.340597,3.13259 -11.086484,10.55759 -17.213082,16.5 L 68.221459,356.5 Z m 114.97508,6.18143 c 0.97883,-1.08159 2.16502,-3.25238 2.63598,-4.82398 0.68381,-2.28184 0.87362,-2.42723 0.94226,-0.72176 0.111,2.75812 -2.07916,6.77273 -3.92155,7.18829 -1.06928,0.24118 -0.98155,-0.1786 0.34331,-1.64255 z m 5.6795,-4.93143 C 187.00689,347.0125 187.45,346 188,346 c 1.25292,0 1.25292,1.06124 0,3 -0.78387,1.21296 -0.9723,1.06944 -0.98469,-0.75 z m -46.93636,-26.83333 c 0.048,-1.16495 0.28494,-1.4019 0.60416,-0.60417 0.28887,0.72187 0.25335,1.58438 -0.0789,1.91667 -0.3323,0.33229 -0.56864,-0.25834 -0.52522,-1.3125 z m -5,-19 c 0.048,-1.16495 0.28494,-1.4019 0.60416,-0.60417 0.28887,0.72187 0.25335,1.58438 -0.0789,1.91667 -0.3323,0.33229 -0.56864,-0.25834 -0.52522,-1.3125 z M 62.666667,290.33333 c -0.366667,-0.36666 -0.659776,-2.05416 -0.651354,-3.75 0.01029,-2.07105 0.293142,-2.64503 0.861558,-1.74832 0.92465,1.45871 14.831156,3.80819 30.123129,5.08927 8.54085,0.7155 7.5228,0.80998 -10.083333,0.93579 -10.770834,0.077 -19.883334,-0.16007 -20.25,-0.52674 z m 55.412283,-6.91666 c 0.048,-1.16495 0.28494,-1.4019 0.60416,-0.60417 0.28887,0.72187 0.25335,1.58438 -0.0789,1.91667 -0.3323,0.33229 -0.56864,-0.25834 -0.52522,-1.3125 z M 253.09889,259.75 c -1.37729,-2.24201 -1.37459,-2.24323 0.75946,-0.34501 2.29128,2.03808 2.58792,2.59501 1.3822,2.59501 -0.4177,0 -1.38145,-1.0125 -2.14166,-2.25 z m -5.5346,-7.45687 c -0.54268,-1.4252 -0.42782,-1.54006 0.5598,-0.5598 0.68342,0.67834 0.99067,1.48524 0.68278,1.79313 -0.30789,0.30789 -0.86705,-0.24711 -1.24258,-1.23333 z M 135.12998,221.78136 C 136.23481,219.19752 138,218.85575 138,221.22568 c 0,0.60921 -0.29301,0.81465 -0.65112,0.45653 -0.35812,-0.35812 -1.26543,0.12938 -2.01625,1.08333 -1.18294,1.50298 -1.20999,1.37163 -0.20265,-0.98418 z m 4.47303,-1.61469 c -0.28327,-0.45834 0.12038,-0.83334 0.89699,-0.83334 0.77661,0 1.18026,0.375 0.89699,0.83334 C 141.11373,220.625 140.71008,221 140.5,221 c -0.21008,0 -0.61373,-0.375 -0.89699,-0.83333 z M 202,215.09844 c 0,-1.03844 1.90221,-2.54172 2.46567,-1.94858 0.18294,0.19258 -0.297,0.93038 -1.06653,1.63957 C 202.62961,215.49861 202,215.63767 202,215.09844 Z M 209,213 c 0.825,-0.53316 1.95,-0.96937 2.5,-0.96937 0.55,0 0.325,0.43621 -0.5,0.96937 -0.825,0.53316 -1.95,0.96937 -2.5,0.96937 -0.55,0 -0.325,-0.43621 0.5,-0.96937 z m -2.5,-3 c -0.33992,-0.55 -0.14148,-1 0.44098,-1 0.58246,0 1.05902,0.45 1.05902,1 0,0.55 -0.19844,1 -0.44098,1 -0.24254,0 -0.7191,-0.45 -1.05902,-1 z m 7.5,-0.059 c 0,-0.58246 0.45,-0.7809 1,-0.44098 0.55,0.33992 1,0.81648 1,1.05902 0,0.24254 -0.45,0.44098 -1,0.44098 -0.55,0 -1,-0.47656 -1,-1.05902 z m -2.02006,-3.46515 c -0.69572,-0.83829 -1.07128,-1.71782 -0.83459,-1.95452 0.2367,-0.23669 0.97964,0.44918 1.65098,1.52417 1.45181,2.32472 0.96763,2.57996 -0.81639,0.43035 z M 152,167.62244 c 0,-0.20765 0.7875,-0.99515 1.75,-1.75 1.58606,-1.24387 1.62143,-1.2085 0.37756,0.37756 C 152.82119,167.91575 152,168.44548 152,167.62244 Z m -44,-9 c 0,-0.20765 0.7875,-0.99515 1.75,-1.75 1.58606,-1.24387 1.62143,-1.2085 0.37756,0.37756 C 108.82119,158.91575 108,159.44548 108,158.62244 Z m 205.76166,-56.3297 c 1.24391,-0.23919 3.04391,-0.23011 4,0.0202 0.95609,0.25029 -0.0617,0.446 -2.26166,0.4349 -2.2,-0.0111 -2.98225,-0.21589 -1.73834,-0.45508 z M 274.75,23.276604 c 1.7875,-0.221826 4.7125,-0.221826 6.5,0 1.7875,0.221827 0.325,0.403322 -3.25,0.403322 -3.575,0 -5.0375,-0.181495 -3.25,-0.403322 z"
         id="path5" />
      <path
         style="fill:#f79614"
         d="M 112,443.96862 C 112,443.43588 112.675,443 113.5,443 c 0.825,0 1.5,0.17686 1.5,0.39301 0,0.21616 -0.675,0.65203 -1.5,0.96862 -0.825,0.31658 -1.5,0.13972 -1.5,-0.39301 z M 118,444 c -2.35046,-0.75275 -2.30207,-0.8066 0.80902,-0.90032 1.9724,-0.0594 3.05937,0.30425 2.69098,0.90032 -0.33992,0.55 -0.70398,0.95514 -0.80902,0.90032 C 120.58594,444.8455 119.375,444.44035 118,444 Z m 8.75,-1.70573 c 1.2375,-0.23836 3.2625,-0.23836 4.5,0 1.2375,0.23835 0.225,0.43337 -2.25,0.43337 -2.475,0 -3.4875,-0.19502 -2.25,-0.43337 z m 8.25,-1.24858 c 0.825,-0.55829 2.3625,-1.02196 3.41667,-1.03038 2.55844,-0.0204 1.76026,0.55192 -1.91667,1.37439 -2.19092,0.49007 -2.59546,0.3973 -1.5,-0.34401 z m -20.29638,-1.14931 c 0.79095,-0.79095 1.62674,-0.79957 2.95,-0.0304 1.61863,0.94083 1.48249,1.07696 -1.10362,1.10362 -2.15133,0.0222 -2.65121,-0.26838 -1.84638,-1.07321 z m 11.10888,0.42051 c 0.72187,-0.28887 1.58438,-0.25335 1.91667,0.0789 0.33229,0.33229 -0.25834,0.56864 -1.3125,0.52522 -1.16495,-0.048 -1.4019,-0.28494 -0.60417,-0.60416 z M 152,440 c 0,-0.55 0.47656,-1 1.05902,-1 0.58246,0 0.7809,0.45 0.44098,1 -0.33992,0.55 -0.81648,1 -1.05902,1 C 152.19844,441 152,440.55 152,440 Z m 27.63837,-7.5 c 0.31659,-0.825 0.97746,-1.5 1.46862,-1.5 0.49115,0 0.89301,0.675 0.89301,1.5 0,0.825 -0.66088,1.5 -1.46862,1.5 -0.89459,0 -1.24363,-0.58629 -0.89301,-1.5 z m -33.16218,-2.11905 c 0.89048,-0.89047 1.92209,-1.31601 2.29247,-0.94562 0.37038,0.37038 0.0114,1.09206 -0.79762,1.60373 -2.36246,1.49407 -3.25436,1.10141 -1.49485,-0.65811 z m -2.17013,-1.73615 c 0.37772,-0.98433 0.22255,-2.65709 -0.34483,-3.71724 -1.42414,-2.66103 -0.51791,-2.42611 1.29101,0.33466 1.31659,2.00936 1.30816,2.42486 -0.0753,3.71724 -1.37684,1.28616 -1.4779,1.24732 -0.87084,-0.33466 z M 173.5,429 c -0.33992,-0.55 -0.14148,-1 0.44098,-1 0.58246,0 1.05902,0.45 1.05902,1 0,0.55 -0.19844,1 -0.44098,1 -0.24254,0 -0.7191,-0.45 -1.05902,-1 z m 4.5,0 c 0,-0.55 0.45,-1 1,-1 0.55,0 1,0.45 1,1 0,0.55 -0.45,1 -1,1 -0.55,0 -1,-0.45 -1,-1 z m -1.884,-4.16667 c -0.0638,-1.46666 -0.6785,-2.89364 -1.366,-3.17105 -0.97906,-0.39506 -0.97226,-0.5215 0.0314,-0.58333 1.58639,-0.0977 2.54359,2.20283 1.91919,4.61264 -0.3159,1.21922 -0.50636,0.93959 -0.58457,-0.85826 z M 132,423 c 0,-0.55 0.45,-1 1,-1 0.55,0 1,0.45 1,1 0,0.55 -0.45,1 -1,1 -0.55,0 -1,-0.45 -1,-1 z m 36.25,-0.68933 c 0.9625,-0.25152 2.5375,-0.25152 3.5,0 0.9625,0.25153 0.175,0.45733 -1.75,0.45733 -1.925,0 -2.7125,-0.2058 -1.75,-0.45733 z M 137,421.49744 c 0,-0.1389 0.61529,-0.7632 1.36732,-1.38733 1.03454,-0.85859 1.64755,-0.79712 2.51871,0.25256 0.93006,1.12065 0.66723,1.38733 -1.36733,1.38733 -1.38528,0 -2.5187,-0.11365 -2.5187,-0.25256 z m -0.73027,-4.42816 c 0.08,-1.0619 0.48237,-1.72249 0.89418,-1.46798 0.41181,0.25451 0.49525,1.12334 0.18543,1.93073 -0.78123,2.03585 -1.2526,1.83381 -1.07961,-0.46275 z M 90.382109,409.85367 C 90.634987,408.5503 95,407.84555 95,409.1081 c 0,1.46949 -2.225895,2.14443 -2.990753,0.90686 -0.55582,-0.89933 -0.917566,-0.92774 -1.313196,-0.10311 -0.379906,0.79185 -0.475428,0.77415 -0.313942,-0.0582 z m 6.430391,-1.53678 c 0.721875,-0.28887 1.584375,-0.25335 1.916667,0.0789 0.332291,0.33229 -0.258334,0.56864 -1.3125,0.52522 -1.164943,-0.048 -1.4019,-0.28494 -0.604167,-0.60416 z M 104,405 c 0,-0.55 1.2375,-0.99311 2.75,-0.98469 2.14294,0.0119 2.41887,0.22931 1.25,0.98469 -1.95653,1.26441 -4,1.26441 -4,0 z m -18.325136,-2.94993 c -0.925945,-1.8561 -1.517542,-3.54073 -1.314659,-3.74361 0.673418,-0.67342 3.772728,4.79474 3.382003,5.96692 -0.211094,0.63328 -1.141399,-0.36721 -2.067344,-2.22331 z m 25.237106,1.0255 c 1.02162,-0.64671 0.19224,-1.16579 -3,-1.8776 l -4.41197,-0.98379 4.19098,-0.10709 c 2.30504,-0.0589 4.45695,0.32326 4.78203,0.84924 0.32507,0.52598 1.25163,0.70283 2.05902,0.39301 0.80738,-0.30983 1.46797,-0.11332 1.46797,0.43668 0,1.14172 -2.37236,2.22124 -4.83179,2.19867 -1.36749,-0.0126 -1.41368,-0.17644 -0.25624,-0.90912 z m 10.55524,-5.01216 C 122.90288,395.28713 125,393.16628 125,394.49064 125,395.94967 121.85672,401 120.94864,401 c -0.55,0 -0.31664,-1.32146 0.51857,-2.93659 z m 3.09708,0.64346 c 0.37553,-0.98622 0.93469,-1.54122 1.24258,-1.23333 0.30789,0.30789 6.4e-4,1.11479 -0.68278,1.79313 -0.98762,0.98026 -1.10248,0.8654 -0.5598,-0.5598 z m -37.739786,-3.03269 c -0.372058,-1.82482 -0.232683,-2.48236 0.393454,-1.85622 0.533281,0.53328 0.792548,1.8049 0.576149,2.82582 -0.291413,1.37482 -0.542875,1.12336 -0.969603,-0.9696 z M 82,394.60699 c 0,-0.76616 0.624067,-1.63249 1.386815,-1.92518 0.972878,-0.37333 1.236546,0.0425 0.883369,1.39301 C 83.691167,396.28898 82,396.68542 82,394.60699 Z m 38.27739,-3.40153 0.0658,-5.29454 1.35382,3.21981 c 0.74461,1.7709 0.95987,3.47844 0.47836,3.79454 -0.48152,0.3161 -1.12035,1.24973 -1.41963,2.07473 -0.29927,0.825 -0.51453,-0.88254 -0.47835,-3.79454 z M 80,390.37756 c 0,-1.3288 0.271492,-1.39713 1.5,-0.37756 0.825,0.68469 1.5,1.41479 1.5,1.62244 C 83,391.8301 82.325,392 81.5,392 80.675,392 80,391.2699 80,390.37756 Z M 143.5,391 c 0.33992,-0.55 0.81648,-1 1.05902,-1 0.24254,0 0.44098,0.45 0.44098,1 0,0.55 -0.47656,1 -1.05902,1 -0.58246,0 -0.7809,-0.45 -0.44098,-1 z m -0.98803,-2.90127 c 0.57254,-1.9126 0.40622,-2.28131 -0.81729,-1.81181 -3.37499,1.29511 -15.28503,-27.71506 -19.61879,-47.78692 -1.06876,-4.95 -2.46671,-13.5794 -3.10654,-19.17643 l -1.16334,-10.17644 6.70076,-6.32356 C 131.58168,296.1469 133,295.16049 133,296.91667 133,297.5125 133.59896,298 134.33102,298 c 2.3415,0 3.64151,4.27224 3.9558,13 l 0.30609,8.5 0.20354,-9.45 c 0.14627,-6.79051 0.50874,-9.14481 1.28798,-8.36557 1.29078,1.29078 2.22084,20.36 2.66284,54.59676 l 0.31993,24.78119 4.82885,-4.07174 c 2.90494,-2.44948 6.27811,-4.30692 8.46639,-4.66203 2.00066,-0.32466 3.63756,-1.02097 3.63756,-1.54735 0,-0.56199 1.64558,-0.67904 3.98642,-0.28355 3.67212,0.6204 4.25586,0.3878 7.40398,-2.95017 1.87965,-1.99302 3.61201,-3.26904 3.84968,-2.83561 0.23767,0.43344 0.27805,0.18139 0.0897,-0.5601 -0.18832,-0.7415 0.75831,-2.65629 2.10362,-4.2551 l 2.44601,-2.90692 1.56028,2.2276 c 0.85815,1.22518 1.56027,1.7776 1.56027,1.2276 0,-0.55 -0.67983,-1.97059 -1.51072,-3.15686 -0.95626,-1.36525 -1.13977,-2.38612 -0.5,-2.78152 0.55589,-0.34357 1.01349,-0.26061 1.01688,0.18435 0.003,0.44496 0.67839,-0.47992 1.5,-2.05529 0.88082,-1.68889 1.50012,-5.58738 1.50915,-9.5 0.0148,-6.41218 1.51474,-11.16912 2.64415,-8.38569 0.27897,0.6875 1.14471,1.25 1.92387,1.25 0.99313,0 1.41667,1.23249 1.41667,4.12244 0,3.67583 0.17439,3.97772 1.60965,2.78656 1.00699,-0.83573 1.19419,-1.47439 0.5,-1.70578 C 191.72848,340.74283 191.63459,338 193,338 c 0.55,0 1,0.45 1,1 0,0.55 0.675,1 1.5,1 2.25558,0 1.87695,0.99142 -2.66835,6.98703 -2.28786,3.01787 -5.64798,7.74287 -7.46694,10.5 -1.81895,2.75713 -3.93224,5.80047 -4.69619,6.76297 -1.4631,1.84335 -3.2237,2.45731 -2.17341,0.75792 0.33722,-0.54564 0.18729,-1.75301 -0.33318,-2.68304 -0.72516,-1.29581 -0.90601,-0.88966 -0.77386,1.73796 0.10905,2.16817 -0.71108,4.7784 -2.23052,7.09916 l -2.40297,3.67023 -6.62729,-0.37647 c -4.4224,-0.25121 -5.96189,-0.0803 -4.62729,0.5136 1.81558,0.808 1.75886,0.89655 -0.61514,0.96035 -3.43601,0.0924 -8.64342,4.08941 -13.63486,10.46574 -1.2375,1.58085 -2.26431,2.25108 -2.2818,1.48941 -0.0214,-0.93211 -0.54562,-0.731 -1.60343,0.61514 -1.53308,1.95095 -1.55399,1.94111 -0.8528,-0.40127 z M 158,375 c 0,-0.55 -0.19844,-1 -0.44098,-1 -0.24254,0 -0.7191,0.45 -1.05902,1 -0.33992,0.55 -0.14148,1 0.44098,1 0.58246,0 1.05902,-0.45 1.05902,-1 z m 14,-3 c 0,-0.55 -0.45,-1 -1,-1 -0.55,0 -1,0.45 -1,1 0,0.55 0.45,1 1,1 0.55,0 1,-0.45 1,-1 z m 3,-4.05902 C 175,367.42344 174.55,367 174,367 c -0.55,0 -1,0.70156 -1,1.55902 0,0.85746 0.45,1.2809 1,0.94098 0.55,-0.33992 1,-1.04148 1,-1.55902 z M 188.98469,346.75 C 188.99311,346.3375 188.55,346 188,346 c -0.55,0 -0.99311,1.0125 -0.98469,2.25 0.0124,1.81944 0.20082,1.96296 0.98469,0.75 0.53316,-0.825 0.97627,-1.8375 0.98469,-2.25 z m -48.30158,-25.9375 c -0.31922,-0.79773 -0.55618,-0.56078 -0.60416,0.60417 -0.0434,1.05416 0.19292,1.64479 0.52522,1.3125 0.33229,-0.33229 0.36781,-1.1948 0.0789,-1.91667 z m -5,-19 c -0.31922,-0.79773 -0.55618,-0.56078 -0.60416,0.60417 -0.0434,1.05416 0.19292,1.64479 0.52522,1.3125 0.33229,-0.33229 0.36781,-1.1948 0.0789,-1.91667 z m -57.948626,80.50846 c -0.404485,-2.29848 -1.413666,-4.85728 -2.242626,-5.68624 -0.82896,-0.82896 -1.103139,-1.75693 -0.609286,-2.06215 1.346149,-0.83196 4.29176,6.09785 3.915509,9.21159 -0.273461,2.26307 -0.450778,2.01913 -1.063597,-1.4632 z M 105,383 c -1.21296,-0.78387 -1.06944,-0.9723 0.75,-0.98469 1.2375,-0.008 2.25,0.43469 2.25,0.98469 0,1.25292 -1.06124,1.25292 -3,0 z m 9.14984,-2 c -1.22738,-3.52087 -2.35142,-3.98542 -1.81469,-0.75 0.20529,1.2375 0.18086,1.6875 -0.0543,1 -0.23514,-0.6875 -1.29453,-1.25 -2.3542,-1.25 C 108.867,380 108,379.35156 108,378.55902 c 0,-1.86558 -0.94713,-2.40167 -6.18318,-3.49982 C 99.442569,374.56125 93.9,373.22454 89.5,372.08873 79.727147,369.56597 79,369.54301 79,371.75721 c 0,1.46351 0.793902,1.71688 4.75,1.51593 l 4.75,-0.24127 -4.25,1.5674 c -2.656718,0.9798 -4.255741,2.19221 -4.265313,3.23406 -0.01253,1.36426 -0.17719,1.41096 -0.90748,0.25735 -0.490691,-0.77512 -0.662111,-2.00883 -0.380933,-2.74157 0.281179,-0.73274 -0.207253,-1.60796 -1.085405,-1.94494 -1.157395,-0.44413 -1.420243,-1.34054 -0.955443,-3.25843 l 0.641195,-2.64574 -2.201167,2.5 -2.201166,2.5 0.65999,-2.37523 c 0.385904,-1.38883 0.270152,-2.1343 -0.278729,-1.79507 C 72.366129,368.89175 69,359.84361 69,356.83705 c 0,-0.81795 5.915662,-7.0784 13.145917,-13.91211 7.230254,-6.83372 14.767754,-13.99179 16.75,-15.90683 l 3.604083,-3.4819 0.29442,2.4819 c 1.41402,11.9197 7.14613,33.82545 12.10438,46.25792 2.78365,6.97981 4.48951,13.82897 1.92374,7.72397 -0.57787,-1.375 -1.25353,-1.96245 -1.50146,-1.30544 -0.24794,0.65701 0.0442,2.11951 0.64925,3.25 0.62243,1.16302 0.69306,2.05544 0.16268,2.05544 -0.51555,0 -1.40797,-1.35 -1.98317,-3 z M 89.25,375.31067 c 0.9625,-0.25152 2.5375,-0.25152 3.5,0 0.9625,0.25153 0.175,0.45733 -1.75,0.45733 -1.925,0 -2.7125,-0.2058 -1.75,-0.45733 z M 23.42719,335.67086 c -0.280522,-0.73103 -0.378898,-5.34353 -0.218615,-10.25 L 23.5,316.5 39.083333,316.22545 c 12.081202,-0.21284 15.595868,0.0119 15.639107,1 0.03068,0.701 0.39524,5.43705 0.810146,10.52455 L 56.286959,337 H 40.112095 c -12.531066,0 -16.289764,-0.29942 -16.684905,-1.32914 z m 100.88417,-41.58363 c -2.85376,-0.34715 -5.50596,-0.9485 -5.89379,-1.33633 -1.53232,-1.53231 3.93329,-37.7509 5.69684,-37.7509 0.38718,0 1.24376,3.2625 1.90351,7.25 0.65976,3.9875 2.05063,11.88534 3.09082,17.55076 2.02165,11.01091 2.34554,15.28452 1.14126,15.05844 -0.4125,-0.0774 -3.08489,-0.42483 -5.93864,-0.77197 z m -44.932147,-5.57179 c -5.016433,-0.68441 -10.813272,-1.56189 -12.881866,-1.94996 l -3.761079,-0.70558 0.709755,-9.66907 c 0.390365,-5.31799 1.017467,-9.89897 1.393561,-10.17995 0.376093,-0.28098 0.705676,-1.86088 0.732406,-3.51088 0.02673,-1.65 0.327599,-4.35 0.668595,-6 0.340997,-1.65 1.142941,-5.7 1.782097,-9 0.639156,-3.3 1.586315,-6.51513 2.104797,-7.14474 0.518482,-0.62961 0.835221,-1.52961 0.703865,-2 -0.401543,-1.43795 2.310638,-11.32498 3.269136,-11.91736 C 74.595216,226.13214 75,225.04252 75,224.01654 c 0,-4.41945 11.248286,-29.53135 19.58198,-43.71695 4.928276,-8.3889 16.6246,-25.38058 19.89459,-28.90159 0.56289,-0.60609 2.81426,-3.26157 5.00305,-5.90105 3.92748,-4.73618 15.64559,-11.61626 16.32405,-9.58437 0.3694,1.1063 -0.94056,9.89158 -3.6662,24.58742 -1.12209,6.05 -2.21788,12.125 -2.43507,13.5 -0.2172,1.375 -0.65255,3.175 -0.96745,4 -0.31491,0.825 -1.31694,6.45 -2.22675,12.5 -1.82961,12.16645 -3.77572,19.95129 -6.49968,26 -10.45414,23.21404 -15.55765,42.27138 -17.60769,65.75 l -0.67669,7.75 -6.612072,-0.12009 c -3.636637,-0.0661 -10.716422,-0.68007 -15.732855,-1.36447 z M 257,265.83333 c 0,-0.64166 -0.26326,-0.90341 -0.58501,-0.58165 -0.89291,0.8929 -6.75653,-1.39759 -8.13319,-3.17704 -1.09373,-1.41375 -1.22144,-1.39584 -1.25,0.17536 -0.0175,0.9625 -0.48816,1.75 -1.04594,1.75 -0.61579,0 -0.9304,-3.008 -0.80095,-7.65799 0.16403,-5.89213 0.45553,-7.24494 1.26414,-5.86672 0.57802,0.98521 2.06345,2.83585 3.30095,4.11254 1.2375,1.27669 2.25,2.70686 2.25,3.17815 0,0.4713 0.7875,1.74762 1.75,2.83627 C 258.59035,266.07703 259.22584,267 258.15499,267 257.51974,267 257,266.475 257,265.83333 Z M 201.01531,249.25 c -0.008,-0.6875 -0.92142,-1.25 -2.02888,-1.25 -1.10746,0 -2.79496,-0.39785 -3.75,-0.88411 -0.95504,-0.48626 -6.46143,-2.34558 -12.23643,-4.13182 -5.775,-1.78623 -11.4,-3.57534 -12.5,-3.9758 -1.1,-0.40046 -4.475,-1.43904 -7.5,-2.30795 -3.025,-0.86891 -7.83455,-2.28194 -10.6879,-3.14008 C 149.45876,232.70211 146.42126,232 145.5621,232 144.70295,232 144,231.58955 144,231.0879 c 0,-0.50166 -1.83108,-1.22146 -4.06906,-1.59957 -2.86931,-0.48476 -4.30226,-1.31788 -4.86001,-2.82562 -0.87991,-2.37863 0.75543,-5.88806 2.29916,-4.93398 0.5483,0.33886 0.70793,-0.083 0.36729,-0.97073 -0.59412,-1.54824 2.42329,-5.26399 3.44499,-4.2423 0.28604,0.28604 1.82452,-0.16021 3.41885,-0.99165 1.59433,-0.83145 3.48671,-1.5145 4.20528,-1.51789 0.71858,-0.003 8.81858,-2.47491 18,-5.49227 26.81595,-8.81273 32.66305,-10.82761 33.1935,-11.43827 0.97828,-1.12624 4.653,-0.55147 6.06513,0.94865 2.33352,2.47891 7.93487,10.95341 7.93487,12.00497 0,0.53392 0.70156,0.97076 1.55902,0.97076 0.85746,0 1.32039,0.3861 1.02874,0.858 -0.29165,0.4719 -3.29349,0.89718 -6.67075,0.94507 -3.37726,0.0479 -6.37428,0.32086 -6.66004,0.60662 -0.28575,0.28576 -0.45256,8.07298 -0.37068,17.30494 0.0871,9.81697 -0.26722,17.40809 -0.8534,18.28537 -0.67248,1.00645 -1.0073,1.0887 -1.01758,0.25 z m -59.61832,-29.08333 c 0.28327,-0.45834 -0.12038,-0.83334 -0.89699,-0.83334 -0.77661,0 -1.18026,0.375 -0.89699,0.83334 C 139.88627,220.625 140.28992,221 140.5,221 c 0.21008,0 0.61373,-0.375 0.89699,-0.83333 z M 208,210 c 0,-0.55 -0.47656,-1 -1.05902,-1 -0.58246,0 -0.7809,0.45 -0.44098,1 0.33992,0.55 0.81648,1 1.05902,1 0.24254,0 0.44098,-0.45 0.44098,-1 z m -71.26667,-26.12409 c 0.67834,-0.68342 1.48524,-0.99067 1.79313,-0.68278 0.30789,0.30789 -0.24711,0.86705 -1.23333,1.24258 -1.4252,0.54268 -1.54006,0.42782 -0.5598,-0.5598 z"
         id="path4" />
      <path
         style="fill:#3f5eeb"
         d="M 317.21057,572.46196 C 316.50139,571.65788 316.36609,571 316.9099,571 c 0.7827,0 1.44147,-36.66355 1.22632,-68.25 -0.007,-0.9625 0.36197,-1.75 0.81894,-1.75 1.23273,0 2.08936,2.81849 0.97003,3.1916 -0.59222,0.19741 -0.95882,13.68578 -0.953,35.06461 0.005,19.10908 -0.0989,34.72667 -0.23137,34.70575 -0.13245,-0.0209 -0.82106,-0.69592 -1.53025,-1.5 z M 336.35496,559.5 c -0.003,-4.95 0.16605,-7.10108 0.37577,-4.78017 0.20972,2.3209 0.21222,6.3709 0.006,9 -0.20667,2.62909 -0.37827,0.73017 -0.38131,-4.21983 z m -0.51614,-18.59767 c -0.18635,-3.35372 -0.0717,-6.26179 0.2548,-6.46237 0.32649,-0.20059 0.68777,2.54337 0.80283,6.09767 0.26547,8.2003 -0.60555,8.50065 -1.05763,0.3647 z M 288.25,536.33772 C 286.81955,535.76052 286.5507,534 287.89301,534 c 0.49116,0 1.15203,0.675 1.46862,1.5 0.31658,0.825 0.47722,1.46447 0.35699,1.42105 -0.12024,-0.0434 -0.78112,-0.30592 -1.46862,-0.58333 z m 39.83333,-2.62069 c 0.22917,-0.15563 1.31667,-0.94313 2.41667,-1.75 1.85001,-1.35701 1.89707,-1.33579 0.62756,0.28297 -0.75485,0.9625 -1.84235,1.75 -2.41667,1.75 -0.57432,0 -0.85672,-0.12734 -0.62756,-0.28297 z m 11.72917,-0.40014 c 0.72187,-0.28887 1.58438,-0.25335 1.91667,0.0789 0.33229,0.33229 -0.25834,0.56864 -1.3125,0.52522 -1.16495,-0.048 -1.4019,-0.28494 -0.60417,-0.60416 z m -52.14583,-0.98356 C 286.6293,531.29596 286.88283,528 288,528 c 0.55,0 1,1.125 1,2.5 0,2.61806 -0.23099,2.93567 -1.33333,1.83333 z M 349.5,531 c 2.75248,-1.18278 3.731,-1.18278 3,0 -0.33992,0.55 -1.60398,0.96837 -2.80902,0.92971 C 347.57862,531.86195 347.57176,531.82859 349.5,531 Z M 335,530.53518 c 0,-0.25565 1.0125,-1.00432 2.25,-1.66372 2.04022,-1.08712 2.12204,-1.04378 0.87756,0.46482 C 336.84973,530.8853 335,531.59437 335,530.53518 Z M 345.5,529 c -1.90836,-0.82005 -1.8969,-0.86265 0.25,-0.92971 1.2375,-0.0387 2.25,0.37971 2.25,0.92971 0,0.55 -0.1125,0.96837 -0.25,0.92971 -0.1375,-0.0386 -1.15,-0.45702 -2.25,-0.92971 z m 13,0 c -0.33992,-0.55 -0.14148,-1 0.44098,-1 0.58246,0 1.05902,0.45 1.05902,1 0,0.55 -0.19844,1 -0.44098,1 -0.24254,0 -0.7191,-0.45 -1.05902,-1 z m -7.93524,-0.89522 c -0.3043,-0.49236 0.0962,-1.14445 0.89006,-1.44907 0.96277,-0.36945 1.25818,-0.0714 0.88726,0.89522 -0.6446,1.67981 -1.01089,1.79396 -1.77732,0.55385 z M 288.232,524 c 0,-1.925 0.2058,-2.7125 0.45733,-1.75 0.25152,0.9625 0.25152,2.5375 0,3.5 -0.25153,0.9625 -0.45733,0.175 -0.45733,-1.75 z M 373,525 c 0,-0.55 -0.7875,-1.00689 -1.75,-1.01531 -1.45169,-0.0127 -1.50244,-0.17192 -0.29775,-0.93402 0.79874,-0.50529 1.87978,-0.65448 2.4023,-0.33155 0.58289,0.36025 0.68397,-1.07678 0.26154,-3.71847 -0.58377,-3.6507 -0.47265,-4.12649 0.73051,-3.12796 2.11417,1.75461 2.70348,-4.00563 0.83121,-8.12464 -0.81201,-1.78643 -2.07698,-4.54021 -2.81105,-6.11951 -0.73406,-1.57931 -1.05923,-3.31712 -0.72259,-3.86181 0.33663,-0.54468 0.12947,-1.2886 -0.46037,-1.65314 -0.58984,-0.36454 -1.50887,-2.60522 -2.04229,-4.97928 l -0.96985,-4.31649 5.16417,-2.10986 c 12.29113,-5.02165 29.02796,-14.14893 40.11699,-21.87743 10.94863,-7.63066 30.40454,-25.45113 39.11882,-35.83053 18.8601,-22.4639 33.38733,-51.8043 40.60041,-82 2.81269,-11.77458 2.70971,-11.15626 4.03878,-24.25 L 498.4035,309 h 19.56874 19.56874 l -0.70261,10.25 c -3.01514,43.98649 -20.1409,88.79479 -47.67954,124.75 -11.99613,15.66248 -38.01853,40.69505 -52.78638,50.77851 -17.54206,11.97768 -32.71298,20.03527 -50.08941,26.60351 C 372.82777,526.46808 373,526.42117 373,525 Z m -4.48036,-2.75 c 0.37338,-1.36573 0.17245,-2.25 -0.51127,-2.25 -0.61952,0 -0.81257,-0.50779 -0.429,-1.12842 0.47681,-0.77149 0.98564,-0.61334 1.6087,0.5 0.57472,1.02698 0.50598,2.27477 -0.18613,3.37842 -0.94724,1.51049 -1.01325,1.44205 -0.4823,-0.5 z m -79.44069,-3.83333 c 0.048,-1.16495 0.28494,-1.4019 0.60416,-0.60417 0.28887,0.72187 0.25335,1.58438 -0.0789,1.91667 -0.33229,0.33229 -0.56864,-0.25834 -0.52522,-1.3125 z m 71.00438,-0.69964 c 0.22917,-0.15563 1.31667,-0.94313 2.41667,-1.75 1.85001,-1.35701 1.89707,-1.33579 0.62756,0.28297 -0.75485,0.9625 -1.84235,1.75 -2.41667,1.75 -0.57432,0 -0.85672,-0.12734 -0.62756,-0.28297 z M 370.5,512 c 0.33992,-0.55 0.81648,-1 1.05902,-1 0.24254,0 0.44098,0.45 0.44098,1 0,0.55 -0.47656,1 -1.05902,1 -0.58246,0 -0.7809,-0.45 -0.44098,-1 z M 315,501.05902 c 0,-0.51754 0.45,-1.2191 1,-1.55902 0.55,-0.33992 1,0.0835 1,0.94098 0,0.85746 -0.45,1.55902 -1,1.55902 -0.55,0 -1,-0.42344 -1,-0.94098 z M 326.5,498 c 0.33992,-0.55 1.71648,-1 3.05902,-1 1.34254,0 2.44098,0.45 2.44098,1 0,0.55 -1.37656,1 -3.05902,1 -1.7847,0 -2.80156,-0.41658 -2.44098,-1 z m 34.13261,-28.21456 c 1.00992,-1.6341 1.11027,-5.82631 0.15361,-6.41756 C 360.3538,463.10063 360,461.78352 360,460.44098 360,459.09844 359.57797,458 359.06215,458 c -0.51582,0 -0.87639,-0.81591 -0.80127,-1.81312 0.0751,-0.99722 -0.47003,-3.27759 -1.21143,-5.06749 -1.01381,-2.44755 -1.58229,-2.92774 -2.29306,-1.93688 -0.69101,0.96333 -0.78936,0.83569 -0.36587,-0.47481 0.31854,-0.98577 0.0796,-3.68577 -0.53092,-6 -1.0056,-3.81164 -0.80256,-5.00778 2.15708,-12.7077 3.45533,-8.9895 24.00272,-59.20544 26.50833,-64.78393 1.80218,-4.01237 1.8542,-5.21741 0.22499,-5.21164 -0.6875,0.002 -9.55046,2.70243 -19.69546,6 C 352.90954,369.30199 344.1312,372 343.54711,372 c -0.59811,0 -1.0686,-2.07474 -1.07716,-4.75 -0.008,-2.6125 -0.36946,-5.90052 -0.80246,-7.30671 -0.85479,-2.77596 -1.93274,-1.37015 20.18658,-26.32635 5.30526,-5.98568 11.08732,-12.49429 12.84901,-14.46359 1.76169,-1.96929 3.4516,-3.332 3.75535,-3.02825 0.30376,0.30375 1.19955,5.23737 1.99065,10.96359 0.7911,5.72622 1.91976,13.20053 2.50815,16.60957 0.58838,3.40905 1.23376,7.6066 1.43417,9.3279 0.57045,4.89939 1.77822,5.15341 6.1086,1.28475 2.2,-1.96543 6.025,-5.20192 8.5,-7.19221 2.475,-1.99028 4.725,-3.84989 5,-4.13245 0.275,-0.28256 2.975,-2.53227 6,-4.99936 3.025,-2.46709 6.625,-5.50337 8,-6.74729 1.375,-1.24392 3.2875,-2.51203 4.25,-2.81802 0.9625,-0.306 1.75,-0.92197 1.75,-1.36882 0,-0.44686 2.3625,-2.6295 5.25,-4.85031 2.8875,-2.22081 6.89706,-5.53737 8.91014,-7.37014 5.14117,-4.68069 7.68669,-6.82254 12.84318,-10.80647 2.47317,-1.91079 4.72168,-3.71181 4.99668,-4.00226 0.275,-0.29045 3.875,-3.22708 8,-6.52584 4.125,-3.29876 7.65,-6.33524 7.83333,-6.74774 0.58669,-1.32005 7.25751,-0.80201 8.7381,0.67857 1.0957,1.0957 1.42733,4.53259 1.42324,14.75 -0.008,20.34381 -4.7091,44.93719 -12.15311,63.57974 -12.58218,31.51043 -33.61973,59.46392 -59.33481,78.8407 -11.40537,8.59415 -16.50439,11.68373 -31.00675,18.78747 -12.84831,6.29353 -20.38119,8.84834 -18.86739,6.39896 z M 292,388.6642 c 0,-2.07978 5.40081,-14.53452 6.11206,-14.09494 0.48837,0.30183 0.88794,1.04224 0.88794,1.64537 0,0.60312 1.125,2.57154 2.5,4.37426 1.375,1.80272 2.5,3.66436 2.5,4.13698 0,0.47263 -1.9125,1.37217 -4.25,1.99899 -2.3375,0.62682 -5.0375,1.4433 -6,1.8144 -0.9625,0.37109 -1.75,0.42732 -1.75,0.12494 z m 16.16935,-45.32913 c 2.05083,-7.4543 4.18951,-11.92557 9.62018,-20.11265 3.01988,-4.55267 5.87765,-8.51672 6.35058,-8.80902 0.47294,-0.29229 0.85989,4.91683 0.85989,11.57583 v 12.10726 l 7.75,-8.86386 c 4.2625,-4.87513 13.4875,-15.28597 20.5,-23.13521 L 366,291.82608 v -19.72191 c 0,-14.44906 0.34233,-20.19008 1.28042,-21.47299 1.12153,-1.53378 1.4251,-1.03008 2.44624,4.05887 0.6412,3.19547 2.11638,12.7328 3.27819,21.19406 l 2.11236,15.38411 -2.40191,2.61589 C 371.39425,295.32285 362.27856,305.5 352.4582,316.5 c -27.66265,30.98556 -24.70944,28.27836 -30.26568,27.74448 -4.3084,-0.41399 -8.72339,0.32226 -13.3854,2.23214 -1.51675,0.62136 -1.58311,0.2945 -0.63777,-3.14155 z M 530.8125,284.31689 c 0.72187,-0.28887 1.58438,-0.25335 1.91667,0.0789 0.33229,0.33229 -0.25834,0.56864 -1.3125,0.52522 -1.16495,-0.048 -1.4019,-0.28494 -0.60417,-0.60416 z m 40.4375,-0.006 c 0.9625,-0.25152 2.5375,-0.25152 3.5,0 0.9625,0.25153 0.175,0.45733 -1.75,0.45733 -1.925,0 -2.7125,-0.2058 -1.75,-0.45733 z m 0.5,-2.97295 c 0.6875,-0.27741 1.8125,-0.27741 2.5,0 0.6875,0.27741 0.125,0.50439 -1.25,0.50439 -1.375,0 -1.9375,-0.22698 -1.25,-0.50439 z"
         id="path3" />
      <path
         style="fill:#2bea6d"
         d="m 308.83587,325.12136 -3.40182,-3.97427 0.13665,-65.59389 c 0.0752,-36.07664 0.3363,-65.79353 0.58031,-66.03754 0.244,-0.24401 2.84071,4.08299 5.77045,9.61556 l 5.32681,10.0592 -0.67333,22.15479 c -0.64135,21.10274 -1.89124,54.3508 -3.14445,83.64476 -0.3174,7.41949 -0.71563,13.6285 -0.88494,13.79782 -0.16932,0.16931 -1.83867,-1.48058 -3.70968,-3.66643 z M 320.03063,316.5 c 0,-0.55 0.43621,-1.675 0.96937,-2.5 0.53316,-0.825 0.96937,-1.05 0.96937,-0.5 0,0.55 -0.43621,1.675 -0.96937,2.5 -0.53316,0.825 -0.96937,1.05 -0.96937,0.5 z m -3.83568,-26 c 0.0204,-1.65 0.2445,-2.20394 0.49804,-1.23097 0.25354,0.97297 0.23687,2.32297 -0.0371,3 -0.27393,0.67703 -0.48137,-0.11903 -0.46099,-1.76903 z M 255.87209,261.38483 C 251.81744,256.09649 247.825,251.06516 247,250.20411 c -1.21701,-1.2702 -1.5,-4.88016 -1.5,-19.13483 V 213.5 l -13.64966,-0.27757 -13.64966,-0.27756 -4.28245,-5.55086 c -3.52414,-4.56794 -4.02887,-5.73076 -2.85035,-6.56677 1.17586,-0.83412 1.13579,-0.92162 -0.22392,-0.48901 C 209.14193,200.87975 206,198.21371 206,196.22796 c 0,-0.613 0.83199,-1.70257 1.84887,-2.42126 1.67548,-1.18415 10.02993,-8.5037 22.12169,-19.38135 2.49119,-2.24105 6.28775,-5.61605 8.43679,-7.5 2.14904,-1.88394 6.19904,-5.49555 9,-8.02579 2.80096,-2.53024 10.71765,-9.67201 17.59265,-15.8706 6.875,-6.19859 16.8167,-14.16238 22.09266,-17.69732 9.38403,-6.28737 9.74289,-6.42971 16.5,-6.54474 3.79904,-0.0647 10.73234,0.21605 15.40734,0.62383 4.675,0.40778 9.5125,0.75479 10.75,0.77113 1.2375,0.0163 2.25,0.48025 2.25,1.03092 0,0.55066 0.69279,0.73535 1.53953,0.41042 0.84675,-0.32492 2.30925,-0.17876 3.25,0.3248 2.39416,1.28153 10.26493,3.26343 12.96047,3.26351 1.2375,3e-5 2.25,0.45494 2.25,1.01091 0,0.55596 0.9,0.77549 2,0.48783 1.1,-0.28766 2,-0.21338 2,0.16505 0,0.37844 2.1375,1.34881 4.75,2.15638 4.36798,1.35023 1.33196,1.48849 -37.75,1.71907 -23.375,0.13792 -43.07645,0.46665 -43.78099,0.73051 -0.88301,0.33071 2.6122,8.22762 11.25,25.41771 C 297.36105,170.61485 303,182.09862 303,182.41847 303,182.73831 294.225,183 283.5,183 H 264 l -0.016,10.75 c -0.009,5.9125 -0.0261,25.7125 -0.0384,44 -0.0123,18.2875 -0.17512,33.25 -0.36187,33.25 -0.18675,0 -3.65699,-4.32683 -7.71165,-9.61517 z m 3.31124,-0.6015 c -0.71756,-0.71756 -1.18333,-0.7766 -1.18333,-0.15 0,0.56834 0.3,1.33334 0.66667,1.7 0.36666,0.36667 0.89916,0.43417 1.18333,0.15 0.28417,-0.28416 -0.0158,-1.04916 -0.66667,-1.7 z M 223.99801,210.25 c -0.001,-0.4125 -1.36723,-0.84565 -3.03587,-0.96256 -1.73653,-0.12166 -2.7795,0.19906 -2.439,0.75 0.6972,1.12809 5.47779,1.3137 5.47487,0.21256 z M 218,199.5 c 0,-0.15731 -0.6,-0.51626 -1.33333,-0.79767 -0.73334,-0.28141 -1.33334,0.0775 -1.33334,0.79767 0,0.72013 0.6,1.07908 1.33334,0.79767 C 217.4,200.01626 218,199.65731 218,199.5 Z m 151.39972,43.75 c 0.39309,-3.0055 2.43688,-13.75031 4.99307,-26.25 0.16871,-0.825 0.55924,-2.175 0.86785,-3 0.69355,-1.85406 5.5211,-27.84758 6.31453,-34 0.31918,-2.475 0.97331,-5.4 1.45361,-6.5 0.4803,-1.1 2.068,-8.3 3.52823,-16 1.46022,-7.7 2.9742,-14.34444 3.3644,-14.76543 0.84839,-0.91533 5.51723,1.33629 9.31415,4.49191 2.47841,2.0598 8.93476,11.93092 15.54942,23.77352 1.3824,2.475 3.79631,6.38108 5.36424,8.68018 1.56793,2.29909 2.85078,4.3796 2.85078,4.62336 0,0.24375 2.025,3.81229 4.5,7.93008 2.475,4.1178 4.5,8.15823 4.5,8.97874 0,0.82052 -5.0625,5.04166 -11.25,9.38031 -6.1875,4.33866 -13.12749,9.24272 -15.42219,10.8979 -2.2947,1.65519 -7.9197,5.69285 -12.5,8.97259 -4.5803,3.27973 -8.47781,6.31723 -8.66114,6.75 -0.18334,0.43276 -0.97084,0.78684 -1.75,0.78684 -0.77917,0 -1.41667,0.45 -1.41667,1 0,0.55 -0.6375,1 -1.41667,1 -0.77916,0 -1.56666,0.3375 -1.75,0.75 -0.41699,0.93824 -7.4812,6.25 -8.31198,6.25 -0.33665,0 -0.39139,-1.6875 -0.12163,-3.75 z M 318.15789,213 c 0,-1.375 0.22698,-1.9375 0.50439,-1.25 0.27741,0.6875 0.27741,1.8125 0,2.5 -0.27741,0.6875 -0.50439,0.125 -0.50439,-1.25 z m 78.43131,-85.74413 c -0.97008,-0.97009 -11.10503,-6.74207 -15.5892,-8.87826 -7.17146,-3.41637 -9.60576,-4.37247 -13.75,-5.40046 -2.3375,-0.57983 -4.25,-1.48689 -4.25,-2.01569 0,-0.5288 -1.575,-0.96146 -3.5,-0.96146 -1.925,0 -3.5,-0.40077 -3.5,-0.89059 0,-0.48983 -1.6875,-1.17384 -3.75,-1.52003 -2.0625,-0.34619 -5.1,-0.86646 -6.75,-1.15615 -1.65,-0.2897 -4.125,-0.72383 -5.5,-0.96473 -1.375,-0.2409 -4.975,-0.90504 -8,-1.47587 -3.025,-0.57082 -7.14935,-1.14018 -9.16522,-1.26524 -2.01587,-0.12507 -3.47296,-0.4203 -3.23798,-0.65607 0.66294,-0.6652 27.2661,-19.731946 33.1532,-23.761237 2.8875,-1.976284 5.25,-4.192976 5.25,-4.925983 0,-0.733007 -1.39182,-2.052477 -3.09293,-2.932156 -1.70111,-0.879679 -2.8504,-1.841946 -2.55398,-2.13837 0.97082,-0.970822 11.05391,1.857361 15.32498,4.298471 C 369.97601,73.92542 372.76195,75 373.86905,75 c 1.10711,0 2.30999,0.480678 2.67308,1.068174 0.3631,0.587495 1.28965,0.826618 2.05902,0.531384 C 379.37052,76.304325 380,76.472809 380,76.973967 c 0,0.501159 0.9,0.737874 2,0.526033 1.1,-0.211841 2,0.0765 2,0.640751 0,0.564254 0.55848,0.839755 1.24107,0.612225 0.68259,-0.22753 1.86561,0.21085 2.62894,0.974177 0.76333,0.763327 2.00485,1.151111 2.75893,0.861742 C 391.38302,80.299526 392,80.498646 392,81.031385 392,81.564123 392.88534,82 393.96742,82 c 2.59297,0 30.49366,14.39679 34.11132,17.601479 0.86831,0.769191 1.91499,1.398521 2.32596,1.398521 0.88661,0 12.26548,8.65733 13.0524,9.93059 0.29943,0.48449 -1.36842,1.55786 -3.70634,2.38527 -2.33792,0.82741 -12.01879,4.46982 -21.51305,8.09426 -16.94394,6.46835 -20.15801,7.33624 -21.64851,5.84575 z"
         id="path2" />
    </g>
  </g>
</svg>
